<?xml version="1.0" standalone="no"?>
<!DOCTYPE svg PUBLIC "-//W3C//DTD SVG 20010904//EN"
 "http://www.w3.org/TR/2001/REC-SVG-20010904/DTD/svg10.dtd">
<svg version="1.0" xmlns="http://www.w3.org/2000/svg"
 width="96.000000pt" height="96.000000pt" viewBox="0 0 96.000000 96.000000"
 preserveAspectRatio="xMidYMid meet">

<g transform="translate(0.000000,96.000000) scale(0.100000,-0.100000)"
fill="#000000" stroke="none">
<path d="M30 478 l0 -453 450 0 450 0 0 453 0 452 -450 0 -450 0 0 -452z m491
226 c35 -18 61 -70 52 -105 -3 -13 -18 -40 -33 -59 l-27 -35 33 -44 34 -44 2
29 c0 16 1 36 2 44 1 10 12 15 36 15 31 0 35 -3 38 -29 2 -15 -4 -50 -13 -77
-16 -49 -15 -50 11 -84 l26 -35 -44 0 c-24 0 -49 5 -54 10 -7 7 -22 6 -47 -5
-108 -45 -217 16 -217 123 0 36 6 48 40 82 l40 40 -20 32 c-26 43 -25 79 1
112 37 47 88 58 140 30z m-251 -209 l0 -215 -45 0 -45 0 0 180 0 180 -35 0
c-33 0 -35 2 -35 35 l0 35 80 0 80 0 0 -215z m550 0 l0 -215 -45 0 -45 0 0
180 0 180 -35 0 c-33 0 -35 2 -35 35 l0 35 80 0 80 0 0 -215z"/>
<path d="M443 634 c-3 -8 0 -27 6 -41 11 -25 12 -25 31 -8 24 22 26 51 4 59
-25 9 -34 7 -41 -10z"/>
<path d="M415 430 c-15 -29 -15 -34 0 -56 16 -25 65 -33 95 -14 12 7 9 16 -17
52 -39 54 -57 58 -78 18z"/>
</g>
</svg>
