<svg xmlns="http://www.w3.org/2000/svg" xmlns:xlink="http://www.w3.org/1999/xlink" viewBox="0 0 1200 800"><defs><style>.cls-1,.cls-38,.cls-48,.cls-49{fill:none;}.cls-2{fill:#ddeef2;}.cls-3{fill:#c2e3ec;}.cls-4{fill:#86aab2;}.cls-5{fill:#81afb5;}.cls-6{fill:#194556;}.cls-7{fill:#fdc69c;}.cls-8{fill:#261b19;}.cls-9{fill:#f96262;}.cls-10{fill:#0e262d;}.cls-11,.cls-43,.cls-45{fill:#fff;}.cls-12{fill:#00637f;}.cls-13{fill:#1b4e61;}.cls-14{fill:#ed836e;}.cls-15{fill:#c66c5d;}.cls-16{fill:#383438;}.cls-17{fill:#1a1e21;}.cls-18{fill:#005899;}.cls-19{fill:#ee8e6f;}.cls-20{fill:#034b77;}.cls-21{font-size:17.34px;fill:#043954;font-family:SoupofJustice;}.cls-22{fill:#e26655;}.cls-23{fill:#c6594e;}.cls-24{fill:#f4b490;}.cls-25{opacity:0.26;}.cls-26{clip-path:url(#clip-path);}.cls-27{fill:#ccbac7;}.cls-28{fill:#a09c9c;}.cls-29{fill:#af5c17;}.cls-30{fill:#0f2c35;}.cls-31{fill:#ed8c6e;}.cls-32{fill:#5e3110;}.cls-33{fill:#0b0a0a;}.cls-34{fill:#f2edeb;stroke:#494745;stroke-width:0.09px;}.cls-34,.cls-38,.cls-40,.cls-48,.cls-49{stroke-miterlimit:10;}.cls-35{fill:#f6f4f5;}.cls-36{fill:#e47f1c;}.cls-37{fill:#6f332c;}.cls-38{stroke:#6f332c;stroke-width:0.36px;}.cls-39{fill:#49201d;}.cls-40{fill:#dba183;stroke:#fff;}.cls-40,.cls-41{stroke-width:0.18px;}.cls-41{fill:#f1e50e;stroke:#f1e50e;stroke-linecap:round;stroke-linejoin:round;}.cls-42{fill:#7e9eb4;}.cls-43{opacity:0.12;}.cls-44{fill:#e95f5e;}.cls-45{opacity:0.23;}.cls-46{fill:#b74f4f;}.cls-47{fill:#f77272;}.cls-48,.cls-49{stroke:#194556;}.cls-48{stroke-width:1.36px;}.cls-49{stroke-width:1.13px;}.cls-50{fill:#1e425a;}.cls-51{fill:#102a38;}.cls-52{fill:#fcad70;}.cls-53{fill:#fcfcfc;}</style><clipPath id="clip-path"><rect class="cls-1" x="287.82" y="176.85" width="629.84" height="446.68"/></clipPath></defs><g id="Слой_1" data-name="Слой 1"><rect class="cls-2" width="1200" height="805.28"/><path class="cls-3" d="M752.71,716.68C627,680.29,520.42,698.94,419,716.68,227.58,750.17,173.2,819.13,108.38,771.11c-94.46-70-78.92-241.61-73.68-289.69,4.55-41.81,22.51-186.79,142.41-304.82C256,99,340.21,71.11,400.21,51.27,543.41,3.9,662.83,17.94,697.52,22.89c105,15,178.1,52.62,197.07,62.75,32.41,17.31,91.29,52.81,145,110.46,90,96.6,212.67,306.25,127.77,464.4-32.27,60.12-97.27,116.77-173.36,129.92C905.54,805.71,872.3,751.3,752.71,716.68Z"/><path class="cls-4" d="M1032.07,391.09l5.89,1.1s0,0,0,0,0,0,0,0h0Z"/><path class="cls-4" d="M1049.61,395.07l11.44,3.65a.13.13,0,0,1,.08.17.12.12,0,0,1-.16.08h0l-11.39-3.74h0a.08.08,0,0,1,0-.1A.09.09,0,0,1,1049.61,395.07Z"/><path class="cls-4" d="M1072.23,403.12q5.51,2.38,10.84,5.15a.24.24,0,1,1-.22.42h0c-3.52-1.87-7.12-3.62-10.77-5.23a.19.19,0,1,1,.15-.34Z"/><path class="cls-4" d="M1093.51,414.23q5.1,3.18,9.92,6.8a.34.34,0,0,1-.41.53h0c-3.17-2.42-6.45-4.69-9.82-6.84a.29.29,0,1,1,.31-.49Z"/><path class="cls-4" d="M1112.69,428.69a117.94,117.94,0,0,1,8.48,8.55.4.4,0,0,1,0,.58.41.41,0,0,1-.58,0h0a114.18,114.18,0,0,0-8.36-8.54.38.38,0,0,1,.5-.56Z"/><path class="cls-4" d="M1128.71,446.62a105.86,105.86,0,0,1,6.47,10.17.49.49,0,0,1-.86.48h0a105.85,105.85,0,0,0-6.34-10.12.45.45,0,0,1,.73-.53Z"/><path class="cls-4" d="M1140.47,467.62a111.89,111.89,0,0,1,4.06,11.35.57.57,0,0,1-1.1.33h0a109.64,109.64,0,0,0-4-11.26.54.54,0,0,1,1-.41Z"/><path class="cls-4" d="M1147.37,490.69q1.13,5.93,1.68,11.95a.65.65,0,0,1-1.3.12h0q-.51-6-1.58-11.83a.61.61,0,0,1,1.2-.23Z"/><path class="cls-4" d="M1149.61,514.68c0,4-.15,8.05-.47,12.05a.74.74,0,0,1-.79.67.73.73,0,0,1-.67-.78h0q.52-6,.55-11.93a.69.69,0,0,1,1.38,0Z"/><path class="cls-4" d="M1147.69,538.7q-1,6-2.37,11.83a.8.8,0,0,1-1,.59.81.81,0,0,1-.6-1h0q1.44-5.8,2.42-11.69a.77.77,0,1,1,1.52.24Z"/><path class="cls-4" d="M1142.08,562.14q-1.83,5.75-4.09,11.35a.9.9,0,0,1-1.16.49.89.89,0,0,1-.49-1.15h0q2.28-5.52,4.13-11.2a.85.85,0,0,1,1.61.52Z"/><path class="cls-4" d="M1133,584.5q-2.68,5.41-5.81,10.59a1,1,0,0,1-1.65-1h0c2.08-3.38,4-6.86,5.81-10.41a.92.92,0,0,1,1.65.83Z"/><path class="cls-4" d="M1120.5,605.13a105.91,105.91,0,0,1-7.75,9.31,1,1,0,1,1-1.49-1.4h0a107.67,107.67,0,0,0,7.64-9.11,1,1,0,1,1,1.6,1.2Z"/><path class="cls-4" d="M1103.86,622.72a61.77,61.77,0,0,1-10.2,6.68,1.08,1.08,0,0,1-1-1.92h0a59.21,59.21,0,0,0,9.88-6.41,1.05,1.05,0,0,1,1.3,1.65Z"/><path class="cls-4" d="M1082.06,633.45c-1,.16-2,.34-3.07.42s-2,.15-3.08.16a43.6,43.6,0,0,1-6.15-.39,1.13,1.13,0,0,1,.3-2.23h0a40.56,40.56,0,0,0,5.82.4c1,0,1.94,0,2.9-.14s1.92-.24,2.88-.38h0a1.1,1.1,0,1,1,.34,2.17Z"/><path class="cls-4" d="M1057.92,630.6a69,69,0,0,1-11-5.27,1.17,1.17,0,0,1,1.19-2h0a67.72,67.72,0,0,0,10.6,5.14,1.14,1.14,0,0,1,.67,1.47A1.13,1.13,0,0,1,1057.92,630.6Z"/><path class="cls-4" d="M1037,618.32a72.44,72.44,0,0,1-8.7-8.55,1.22,1.22,0,0,1,1.85-1.59h0a69.73,69.73,0,0,0,8.37,8.29,1.2,1.2,0,0,1-1.53,1.84Z"/><path class="cls-4" d="M1021.24,599.77a48.74,48.74,0,0,1-4.66-11.38,1.27,1.27,0,1,1,2.46-.64h0a46.08,46.08,0,0,0,4.37,10.8,1.24,1.24,0,1,1-2.17,1.21Z"/><path class="cls-4" d="M1015.38,576.09a39.66,39.66,0,0,1,2.85-12,1.33,1.33,0,0,1,1.72-.73,1.31,1.31,0,0,1,.72,1.71h0a37.08,37.08,0,0,0-2.72,11.22,1.29,1.29,0,0,1-2.57-.18Z"/><path class="cls-4" d="M1024.29,553.35a54.79,54.79,0,0,1,8.37-9,1.37,1.37,0,1,1,1.78,2.07h0a51.91,51.91,0,0,0-8,8.5,1.34,1.34,0,1,1-2.15-1.59Z"/><path class="cls-4" d="M1042.83,537.46a49.13,49.13,0,0,1,11.55-4.32,1.41,1.41,0,0,1,.64,2.75h0a46.44,46.44,0,0,0-10.9,4,1.39,1.39,0,0,1-1.28-2.47Z"/><path class="cls-4" d="M1066.7,532.07a45,45,0,0,1,12.12,2.44,1.46,1.46,0,0,1-1,2.76h0a42,42,0,0,0-11.33-2.34,1.43,1.43,0,0,1-1.34-1.52A1.42,1.42,0,0,1,1066.7,532.07Z"/><path class="cls-4" d="M1089.9,539.86a71.27,71.27,0,0,1,9.78,7.39,1.5,1.5,0,0,1-2,2.24h0a67.59,67.59,0,0,0-9.33-7.11,1.48,1.48,0,0,1,1.57-2.52Z"/><path class="cls-4" d="M1108.13,556.09c1.28,1.59,2.54,3.21,3.67,4.92s2.2,3.46,3.19,5.25a1.56,1.56,0,0,1-2.73,1.49h0c-.93-1.72-1.93-3.4-3-5s-2.27-3.18-3.48-4.71l0,0a1.53,1.53,0,0,1,.26-2.15A1.51,1.51,0,0,1,1108.13,556.09Z"/><path class="cls-4" d="M1119.93,577.47a87.7,87.7,0,0,1,3.18,11.79,1.6,1.6,0,0,1-3.14.63h0a85.54,85.54,0,0,0-3-11.38,1.58,1.58,0,1,1,3-1Z"/><path class="cls-4" d="M1124.8,601.32c.34,4,.47,8.1.42,12.14a1.65,1.65,0,1,1-3.3,0h0c.06-3.95-.05-7.9-.37-11.84a1.63,1.63,0,0,1,3.25-.26Z"/><path class="cls-4" d="M1124.58,625.57q-.57,6-1.57,12a1.69,1.69,0,1,1-3.34-.56h0q1-5.87,1.57-11.77a1.68,1.68,0,0,1,3.34.31Z"/><path class="cls-4" d="M1120.62,649.46l-3.14,11.69a1.7,1.7,0,1,1-3.29-.88h0l0-.1,3.1-11.49,0-.1a1.7,1.7,0,0,1,3.29.88Z"/><path class="cls-4" d="M1113.65,672.63l-4.54,11.23a1.72,1.72,0,1,1-3.19-1.29h0l0-.1,4.47-11,0-.1a1.71,1.71,0,1,1,3.18,1.28Z"/><path class="cls-4" d="M1103.85,694.78q-2.82,5.37-6.08,10.51a1.74,1.74,0,1,1-2.93-1.86h0c2.13-3.32,4.1-6.75,6-10.25a1.73,1.73,0,1,1,3.06,1.61Z"/><path class="cls-4" d="M1090.71,715.22a112.55,112.55,0,0,1-8.11,9.08,1.75,1.75,0,1,1-2.49-2.47h0A109.35,109.35,0,0,0,1088,713a1.75,1.75,0,1,1,2.73,2.19Z"/><path class="cls-4" d="M1073.61,732.5c-3.13,2.58-6.38,5-9.71,7.3a1.77,1.77,0,1,1-2-2.92h0c3.26-2.23,6.43-4.59,9.47-7.1a1.77,1.77,0,1,1,2.25,2.72Z"/><path class="cls-4" d="M1053.62,746.26l-10.71,5.67a1.79,1.79,0,1,1-1.67-3.16h0l.11-.06,10.5-5.53.11-.06a1.78,1.78,0,0,1,1.66,3.14Z"/><path class="cls-4" d="M1031.85,756.87l-11.32,4.27a1.8,1.8,0,1,1-1.27-3.37h0l.09,0,11.14-4.18.09,0a1.8,1.8,0,1,1,1.27,3.36Z"/><path class="cls-4" d="M1009,764.81l-11.67,3.11a1.82,1.82,0,0,1-.94-3.52h0l.08,0,11.51-3,.08,0a1.81,1.81,0,1,1,.93,3.5Z"/><path class="cls-4" d="M985.55,770.52l-11.87,2.14a1.83,1.83,0,0,1-.65-3.61h.06l11.75-2.1h.07a1.82,1.82,0,1,1,.64,3.59Z"/><path class="cls-4" d="M961.74,774.38l-12,1.31a1.85,1.85,0,1,1-.4-3.68h.06l11.87-1.28h.06a1.85,1.85,0,0,1,.4,3.67Z"/><path class="cls-4" d="M937.73,776.63l-12,.6a1.87,1.87,0,0,1-.19-3.73h.06l11.93-.57h0a1.86,1.86,0,1,1,.18,3.71Z"/><path class="cls-4" d="M913.65,777.49l-12,0a1.89,1.89,0,1,1,0-3.77h0l12,.06h0a1.87,1.87,0,0,1,0,3.74Z"/><path class="cls-4" d="M889.57,777.12l-12-.61a1.9,1.9,0,1,1,.2-3.79h0l11.94.63h0a1.89,1.89,0,0,1-.19,3.77Z"/><path class="cls-4" d="M865.53,775.63l-12-1.13a1.91,1.91,0,1,1,.36-3.81h0l11.91,1.14h0a1.9,1.9,0,0,1-.37,3.79Z"/><path class="cls-4" d="M841.59,773.11l-11.93-1.62a1.93,1.93,0,0,1,.52-3.83h0l11.85,1.63h0a1.92,1.92,0,0,1-.52,3.81Z"/><path class="cls-4" d="M817.77,769.63l-11.86-2.09a1.94,1.94,0,0,1,.68-3.83h0l11.78,2.09h0a1.94,1.94,0,0,1-.67,3.82Z"/><path class="cls-4" d="M794.11,765.23l-11.77-2.53a2,2,0,1,1,.83-3.83h0l11.69,2.53h0a2,2,0,1,1-.82,3.82Z"/><path class="cls-4" d="M770.62,760,759,757a2,2,0,0,1,1-3.83h0l11.59,3h0a2,2,0,1,1-1,3.82Z"/><path class="cls-4" d="M747.35,753.83l-11.56-3.38a2,2,0,0,1,1.12-3.83h0L748.43,750h0a2,2,0,1,1-1.11,3.81Z"/><path class="cls-4" d="M724.3,746.86l-11.41-3.81a2,2,0,0,1,1.26-3.78h0l11.35,3.78h0a2,2,0,0,1-1.26,3.79Z"/><path class="cls-4" d="M701.54,739l-11.27-4.23a2,2,0,1,1,1.39-3.69h0l11.21,4.19h0a2,2,0,1,1-1.39,3.72Z"/><path class="cls-4" d="M679.08,730.35,668,725.7a2,2,0,1,1,1.52-3.61h0l11,4.61,0,0a2,2,0,1,1-1.51,3.62Z"/><path class="cls-4" d="M657,720.84l-10.91-5.08a1.95,1.95,0,1,1,1.64-3.53l0,0,10.85,5,0,0a2,2,0,0,1-1.64,3.54Z"/><path class="cls-4" d="M635.24,710.46l-10.7-5.52a1.93,1.93,0,0,1,1.77-3.43l0,0L637,707l0,0a1.93,1.93,0,0,1-1.77,3.44Z"/><path class="cls-4" d="M614,699.19l-10.45-6a1.91,1.91,0,1,1,1.89-3.32l0,0,10.4,5.92,0,0a1.92,1.92,0,1,1-1.9,3.33Z"/><path class="cls-4" d="M593.18,687,583,680.58a1.9,1.9,0,0,1,2-3.21l0,0,10.11,6.37,0,0a1.92,1.92,0,0,1,.59,2.63,1.9,1.9,0,0,1-2.62.59Z"/><path class="cls-4" d="M573,673.92l-9.89-6.86a1.88,1.88,0,0,1,2.14-3.09l0,0,9.83,6.81,0,0a1.88,1.88,0,1,1-2.14,3.1Z"/><path class="cls-4" d="M553.34,660l-9.59-7.26a1.86,1.86,0,0,1,2.25-3l0,0,9.55,7.2,0,0a1.87,1.87,0,1,1-2.25,3Z"/><path class="cls-4" d="M534.3,645.27,525,637.64a1.84,1.84,0,0,1,2.34-2.85l0,0,9.26,7.57,0,0a1.85,1.85,0,0,1-2.35,2.87Z"/><path class="cls-4" d="M515.84,629.84l-9-8a1.83,1.83,0,0,1,2.43-2.74l0,0,9,7.92,0,0a1.84,1.84,0,0,1-2.43,2.76Z"/><path class="cls-4" d="M498,613.72l-8.71-8.29a1.81,1.81,0,1,1,2.5-2.63l0,0,8.68,8.24,0,0a1.82,1.82,0,1,1-2.51,2.64Z"/><path class="cls-4" d="M480.68,597l-8.42-8.6a1.8,1.8,0,1,1,2.57-2.51l0,0,8.39,8.54,0,0a1.81,1.81,0,0,1-2.58,2.53Z"/><path class="cls-4" d="M464,579.64l-8.12-8.88a1.78,1.78,0,1,1,2.63-2.4l0,0,8.09,8.82,0,0a1.79,1.79,0,1,1-2.64,2.42Z"/><path class="cls-4" d="M447.9,561.75l-7.81-9.15a1.77,1.77,0,0,1,2.69-2.3v0l7.79,9.1,0,0a1.77,1.77,0,1,1-2.69,2.31Z"/><path class="cls-4" d="M432.43,543.32l-7.51-9.41a1.75,1.75,0,0,1,2.74-2.18v0l7.49,9.35,0,0a1.76,1.76,0,1,1-2.75,2.2Z"/><path class="cls-4" d="M417.57,524.39l-7.19-9.65a1.74,1.74,0,0,1,2.78-2.08l0,0,7.17,9.59,0,0a1.75,1.75,0,0,1-2.8,2.09Z"/><path class="cls-4" d="M403.36,505l-6.86-9.88a1.72,1.72,0,1,1,2.82-2l0,0,6.84,9.83v0a1.72,1.72,0,1,1-2.83,2Z"/><path class="cls-4" d="M389.81,485.09,383.28,475a1.7,1.7,0,1,1,2.86-1.85l0,0,6.5,10,0,0a1.71,1.71,0,0,1-2.87,1.86Z"/><path class="cls-4" d="M376.94,464.77l-6.17-10.33a1.7,1.7,0,0,1,.58-2.31,1.68,1.68,0,0,1,2.31.58l0,0L379.83,463l0,0a1.7,1.7,0,0,1-2.91,1.74Z"/><path class="cls-4" d="M364.8,444,359,433.44a1.64,1.64,0,1,1,2.87-1.57v0l5.8,10.47v0a1.66,1.66,0,1,1-2.9,1.61Z"/><path class="cls-4" d="M353.44,422.78,348.06,412a1.58,1.58,0,1,1,2.83-1.42l0,0,5.39,10.68,0,0a1.61,1.61,0,0,1-2.88,1.45Z"/><path class="cls-4" d="M342.88,401.16l-4.95-11a1.54,1.54,0,1,1,2.8-1.27v0l5,10.89v0a1.56,1.56,0,0,1-2.84,1.3Z"/><path class="cls-4" d="M333.2,379.13,328.71,368a1.49,1.49,0,0,1,2.77-1.12v0L336,378v0a1.51,1.51,0,0,1-2.8,1.14Z"/><path class="cls-4" d="M324.47,356.7l-4-11.36a1.43,1.43,0,0,1,.88-1.83,1.44,1.44,0,0,1,1.84.88v0l4,11.28v0a1.46,1.46,0,1,1-2.76,1Z"/><path class="cls-4" d="M316.8,333.89l-3.41-11.54a1.39,1.39,0,0,1,2.67-.79v0l3.43,11.46v0a1.42,1.42,0,1,1-2.71.82Z"/><path class="cls-4" d="M310.29,310.71,307.53,299a1.35,1.35,0,0,1,2.62-.61v0L313,310v0a1.37,1.37,0,0,1-2.67.64Z"/><path class="cls-4" d="M305.12,287.19l-2-11.87a1.29,1.29,0,1,1,2.55-.43v0l2.06,11.78v.05a1.32,1.32,0,0,1-2.6.45Z"/><path class="cls-4" d="M301.48,263.38l-1.17-12a1.25,1.25,0,0,1,2.49-.24v0L304,263.08v.05a1.27,1.27,0,1,1-2.53.26Z"/><path class="cls-4" d="M299.63,239.36l-.16-12.06a1.2,1.2,0,1,1,2.39,0v0l.2,12v0a1.22,1.22,0,1,1-2.44,0Z"/><path class="cls-4" d="M299.88,215.25l1-12a1.15,1.15,0,0,1,1.24-1,1.17,1.17,0,0,1,1.05,1.25v.06l-1,11.9v.06a1.18,1.18,0,0,1-1.27,1.07,1.16,1.16,0,0,1-1.07-1.26Z"/><path class="cls-4" d="M302.61,191.29l2.44-11.83a1.1,1.1,0,0,1,2.16.45l0,.06-2.36,11.7v.07a1.13,1.13,0,1,1-2.21-.45Z"/><path class="cls-4" d="M308.27,167.82q1.82-5.76,4.06-11.37a1.05,1.05,0,1,1,2,.78q-2.19,5.53-4,11.24a1.08,1.08,0,0,1-2.06-.64Z"/><path class="cls-4" d="M317.27,145.42q2.7-5.41,5.84-10.58a1,1,0,1,1,1.72,1q-3.07,5.1-5.71,10.45a1,1,0,1,1-1.85-.91Z"/><path class="cls-4" d="M329.86,124.81c2.4-3.23,4.95-6.36,7.65-9.35a.94.94,0,0,1,1.32-.07.93.93,0,0,1,.07,1.31q-4,4.45-7.47,9.27a1,1,0,1,1-1.57-1.15Z"/><path class="cls-4" d="M346,106.88q4.44-4.09,9.22-7.78a.85.85,0,0,1,1.05,1.34c-3.13,2.46-6.16,5-9.06,7.75a.9.9,0,0,1-1.26,0,.89.89,0,0,1,0-1.26Z"/><path class="cls-4" d="M365.05,92.09l10.29-6.28a.78.78,0,0,1,1.06.26.76.76,0,0,1-.25,1.06l0,0L366,93.44l-.05,0a.81.81,0,1,1-.85-1.38Z"/><path class="cls-4" d="M386,80.24l11-4.91a.69.69,0,1,1,.57,1.26l0,0-10.89,5,0,0a.73.73,0,0,1-.61-1.33Z"/><path class="cls-4" d="M408.25,71l11.43-3.73a.61.61,0,0,1,.39,1.16h0l-11.35,3.8h0a.66.66,0,0,1-.83-.42.65.65,0,0,1,.42-.82Z"/><path class="cls-4" d="M431.27,64.07,443,61.34a.52.52,0,0,1,.64.4.54.54,0,0,1-.39.64h0l-11.65,2.8h0a.58.58,0,0,1-.27-1.12Z"/><path class="cls-4" d="M454.77,59.05l11.87-1.87a.46.46,0,0,1,.14.9h0l-11.83,2h0a.5.5,0,0,1-.57-.41.49.49,0,0,1,.4-.57Z"/><path class="cls-4" d="M478.56,55.68l11.95-1.13a.37.37,0,1,1,.07.74h0l-11.92,1.21h0a.41.41,0,1,1-.09-.82Z"/><path class="cls-4" d="M502.49,53.73l12-.5a.29.29,0,0,1,.3.28.28.28,0,0,1-.28.3h0l-12,.6h0a.34.34,0,0,1-.35-.32.34.34,0,0,1,.32-.36Z"/><path class="cls-4" d="M526.49,53l12,0a.19.19,0,1,1,0,.37l-12,.06h0a.24.24,0,0,1-.24-.24.24.24,0,0,1,.24-.24Z"/><path class="cls-4" d="M550.49,53.37l12,.53a.07.07,0,0,1,.07.08.08.08,0,0,1-.08.08l-12-.43a.13.13,0,0,1-.13-.13.13.13,0,0,1,.14-.13Z"/><path class="cls-4" d="M574.61,54.66l6,.45-6-.4s0,0,0,0,0,0,0,0Z"/><path class="cls-3" d="M631.2,69.74a1.37,1.37,0,0,0-.39-1.28l-1.92-1.88-55.73-54.7-6.93-6.66L567,34.13v0h0L547.77,50l-.85.71a1.48,1.48,0,0,0,.4,2.52l18.33,7,1.65.62L568,81l.06,1.5a2.92,2.92,0,0,0,3.68,2.75l58.28-14.32A1.42,1.42,0,0,0,631.2,69.74ZM567.14,50.32v0l-.11,0Z"/><path class="cls-5" d="M628.89,66.58l-55.73-54.7-6.93-6.66L567,34.13v0h0L547.77,50l17.75,6.75.13,3.44,1.65.62L568,81a2.85,2.85,0,0,0,2,.18l58.27-14.31A1.54,1.54,0,0,0,628.89,66.58ZM565.26,46.27l.11,0v0Z"/><path class="cls-3" d="M567.28,60.44l0-3.11-.1-7-.11,0-18.95,3a1.62,1.62,0,0,1-.76-.07l20,7.58Z"/><path class="cls-3" d="M567,34.14h0L546.92,50.75a1.48,1.48,0,0,0,.4,2.52,1.62,1.62,0,0,0,.76.07l18.95-3h.11v0l64,19.5Z"/><path class="cls-6" d="M567.19,35.94l38.9,22.24a1.5,1.5,0,0,0,1.53.06,1.49,1.49,0,0,0-.07-2.62L568.46,33.26l-.75-28.08a1.48,1.48,0,0,0-3,.08l.75,28.23L546,49.62a2.93,2.93,0,0,0-.81,3.44v0a3,3,0,0,0,1.48,1.46l.16.09,19.11,7.26.69,20.61a4.34,4.34,0,0,0,1.72,3.4,4.45,4.45,0,0,0,3.83.76l31.59-8.5,26.61-5.8a2.94,2.94,0,0,0,1.49-5L574.19,10.83a1.48,1.48,0,1,0-2.08,2.11l55.07,54-52.56-15.8a1.48,1.48,0,0,0-.85,2.84l53.36,16L603.05,75.3,571.4,83.81a1.49,1.49,0,0,1-1.28-.24,1.43,1.43,0,0,1-.56-1.12l-.79-21.66-.15-10.49a1.48,1.48,0,0,0-1.5-1.46,1.08,1.08,0,0,0-.31.07l0,0-18.92,3Zm-1.51,16.11.07,5.3,0,1.35L553.4,54Z"/><path class="cls-3" d="M1030.28,397.82l33.55,24.28a2,2,0,0,0,1.73.35,2,2,0,0,0,1.34-1.15l.42-.94,5.71-12.69,1.21,0,13.53.31a1,1,0,0,0,.88-.49,1,1,0,0,0,0-1l-.36-.68-8.18-15.14h0l8-18.29-6.15,2.46-49.84,20.51-1.71.7a.92.92,0,0,0-.58.72A1,1,0,0,0,1030.28,397.82Zm45.64,3.19h-.08l0,0Z"/><path class="cls-5" d="M1032.47,395.68,1066,420a1.92,1.92,0,0,0,1.3.4l5.71-12.69,1.21,0,1-2.16,13.11.29-8.18-15.14h0l8-18.29-6.15,2.46-49.84,20.51A1,1,0,0,0,1032.47,395.68Zm45.56,3.18,0,0,.06,0Z"/><path class="cls-3" d="M1073.14,407.41l.83-2,1.87-4.43h.08l11.34,6.84a1.16,1.16,0,0,0,.51.15l-14.74-.33Z"/><path class="cls-3" d="M1080.13,390.66h0l8.54,15.82a1,1,0,0,1,0,1,1,1,0,0,1-.88.49,1.16,1.16,0,0,1-.51-.15L1075.92,401l-.06,0,0,0-46-4.15Z"/><path class="cls-6" d="M1087.78,407l-11.32-6.84,0,0-.18-.13a1,1,0,0,0-1.34.55l-2.82,6.66L1066,420.88a1,1,0,0,1-.64.58,1,1,0,0,1-.89-.18l-18-13.65-14-9.61,38.28,3.6a1,1,0,0,0,.19-2L1033.14,396l49.24-20.26a1,1,0,1,0-.78-1.89l-51.54,21.21a2,2,0,0,0-1.24,1.66,2.07,2.07,0,0,0,.89,1.91l15.52,10.61,18,13.63a3.06,3.06,0,0,0,2.65.51,3,3,0,0,0,2-1.73l5.79-13,14.1.32.13,0a2,2,0,0,0,1.32-.55l0,0a2,2,0,0,0,.37-2.41l-8.31-15.39,7.81-17.85a1,1,0,0,0-1.87-.82l-7.77,17.76-30.8,4.15a1,1,0,0,0-.86.61,1,1,0,0,0,1.13,1.41l30.65-4.12Zm-4.09-.09-9.15-.21.38-.85,1.42-3.38Z"/><polygon class="cls-7" points="93.65 767.1 75.72 782.86 95.08 796.13 103.28 775 93.65 767.1"/><path class="cls-8" d="M109.83,819.54a4.31,4.31,0,0,1-.38.44,6.8,6.8,0,0,1-3.85,2.08L68.52,791.64,79.71,778l14.84,12.17,6.9-.87,9.75,25.94A6.65,6.65,0,0,1,109.83,819.54Z"/><path class="cls-9" d="M109.45,820a6.8,6.8,0,0,1-3.85,2.08L68.52,791.64l2.56-3.13Z"/><path class="cls-10" d="M987.24,195.16v412a42.25,42.25,0,0,1-28.12,39.69,41.38,41.38,0,0,1-14,2.42H243.88a42.23,42.23,0,0,1-42.11-42.11v-412a42.22,42.22,0,0,1,39.11-42c1-.09,2-.13,3-.13H945.13A42.23,42.23,0,0,1,987.24,195.16Z"/><path class="cls-11" d="M998.23,192.87v412a42.29,42.29,0,0,1-39.11,42c-1,.09-2,.13-3,.13H254.87a42.23,42.23,0,0,1-42.11-42.11v-412a41.7,41.7,0,0,1,8.29-25,42.14,42.14,0,0,1,19.83-14.7,41.38,41.38,0,0,1,14-2.42H956.12A42.23,42.23,0,0,1,998.23,192.87Z"/><path class="cls-6" d="M996.4,195.16v412a42.28,42.28,0,0,1-42.11,42.11H253a42.24,42.24,0,0,1-42.12-42.11v-412A42.29,42.29,0,0,1,253,153.05H954.29A42.23,42.23,0,0,1,996.4,195.16Z"/><rect class="cls-10" x="285.38" y="174.41" width="635.95" height="451.02"/><rect class="cls-11" x="287.82" y="176.85" width="629.84" height="446.68"/><circle class="cls-10" cx="251.21" cy="400.19" r="9.32"/><rect class="cls-12" x="950.63" y="374.68" width="9.15" height="69.65" rx="4.58"/><path class="cls-13" d="M531.34,384.67A79.65,79.65,0,1,1,451.69,305,79.5,79.5,0,0,1,531.34,384.67Z"/><path class="cls-14" d="M477.75,363.81c.29.12,1.23-3.85,3.69-4.56a4.27,4.27,0,0,1,4.08,1.44,5.35,5.35,0,0,1,1.12,3.6,10.16,10.16,0,0,1-1.28,5.21,8.47,8.47,0,0,1-3,3.84c-1.4.89-4.07,1.83-5.77.56-1.27-.94-1.39-2.66-1.52-4.64a8.08,8.08,0,0,1,.64-4.09c.41-.88.61-.77.88-1.44,1-2.39-1-5-.56-5.2s1.46.82,1.84,2.24C478.33,362.34,477.57,363.74,477.75,363.81Z"/><path class="cls-15" d="M479.44,363.44a2.73,2.73,0,0,1,2.6-2,2.69,2.69,0,0,1,1.66.57,2.79,2.79,0,0,1,.94,1.39,4.37,4.37,0,0,0-1.19-1,2.85,2.85,0,0,0-1.41-.36,3,3,0,0,0-1.42.36A4,4,0,0,0,479.44,363.44Z"/><path class="cls-15" d="M482.28,364.89a4,4,0,0,0,.05-3.11,2,2,0,0,1,.43.72,2.7,2.7,0,0,1,.15.84A2.37,2.37,0,0,1,482.28,364.89Z"/><path class="cls-11" d="M478.72,370.26a2.94,2.94,0,0,0,.48.22l.14.06-.86,5.11,1.73.48a39.42,39.42,0,0,1,1.06-7.13,2.56,2.56,0,0,0,.12-1.42,2.3,2.3,0,0,0-.51-.94,2,2,0,0,0-1.44-.66l-.59,0c-.08,1.2-.2,2.39-.37,3.56v.29A.68.68,0,0,0,478.72,370.26Z"/><path class="cls-16" d="M480.21,376.13a.92.92,0,0,1-1.74-.48Z"/><path class="cls-14" d="M428.65,363.85c-.28.12-1.22-3.86-3.68-4.57a4.3,4.3,0,0,0-4.09,1.45,5.41,5.41,0,0,0-1.12,3.6,10.16,10.16,0,0,0,1.28,5.21,8.42,8.42,0,0,0,3,3.84c1.39.89,4.06,1.83,5.76.56,1.27-.95,1.39-2.66,1.52-4.64a8,8,0,0,0-.64-4.09c-.41-.88-.61-.77-.88-1.44-1-2.39,1-5,.56-5.21s-1.46.82-1.84,2.25S428.83,363.78,428.65,363.85Z"/><path class="cls-17" d="M479.45,333.13l-.09,1.51-5.06-.85-2.39-.4-1.32-.22c.12-.25.25-.53.37-.83a16.46,16.46,0,0,0,1.18-4.83,16.71,16.71,0,0,0-1.27-8,15.86,15.86,0,0,1,6.1,5.58A16,16,0,0,1,479.45,333.13Z"/><path class="cls-18" d="M508.25,440.75a79.62,79.62,0,0,1-110.11,2.87c.33-1.24.71-2.4,1.08-3.49,2.65-5.74,5.89-8.59,8.37-10.17.44-.29,2.91-1.61,8-3.9l.93-.42c1.71-.8,3.83-1.81,6.52-3.18,3.61-1.87,6.46-3.59,8.31-4.76a22.45,22.45,0,0,0,8.57-16.57c.17-1.12.3-2.31.42-3.56.08-.87.15-1.77.2-2.72a11.66,11.66,0,0,0,.06-1.18h0a.06.06,0,0,0,0,0,77.74,77.74,0,0,0-.28-10,74.31,74.31,0,0,0-1.48-9.1h29.59a72.43,72.43,0,0,0-1.48,9.1,71.44,71.44,0,0,0-.3,9.21v.2c0,.6.06,1.19.09,1.78a1.23,1.23,0,0,0,0,.27c0,.71.09,1.43.15,2.11a1.14,1.14,0,0,1,0,.25c.13,1.28.27,2.49.44,3.65a22.43,22.43,0,0,0,3,10.23,22.06,22.06,0,0,0,5.53,6.34c1.84,1.17,4.7,2.89,8.31,4.76,3.2,1.63,5.58,2.76,7.45,3.6,5.07,2.29,7.52,3.61,8,3.9,2.47,1.58,5.72,4.43,8.37,10.17A5.62,5.62,0,0,1,508.25,440.75Z"/><path class="cls-19" d="M475.94,417.7a47.62,47.62,0,0,1-20.43,5.54,47,47,0,0,1-13.75-1.49,48.16,48.16,0,0,1-10.43-4.05,22.31,22.31,0,0,0,8.57-16.57,73.08,73.08,0,0,0,.42-17.46,74.25,74.25,0,0,0-1.47-9.11h29.57a72.65,72.65,0,0,0-1.05,26.57,22.31,22.31,0,0,0,8.57,16.57Z"/><path class="cls-20" d="M426.43,460.21a79.63,79.63,0,0,1-28.29-16.59c.33-1.24.71-2.4,1.08-3.49,2.65-5.74,5.89-8.59,8.37-10.17.44-.29,2.91-1.61,8-3.9l.93-.42C417.82,434,420.66,447.94,426.43,460.21Z"/><text class="cls-21" transform="translate(468.97 450.16)">Q</text><path class="cls-22" d="M453.14,390.08a96,96,0,0,1-1.13,12.6,43.43,43.43,0,0,1-4.5,11.68,23.81,23.81,0,0,1-5.2,6.93l-.55.46a48.16,48.16,0,0,1-10.43-4.05,22.31,22.31,0,0,0,8.57-16.57,73.08,73.08,0,0,0,.42-17.46,74.25,74.25,0,0,0-1.47-9.11h13.42A96.76,96.76,0,0,1,453.14,390.08Z"/><ellipse class="cls-23" cx="453.2" cy="370.39" rx="21.87" ry="28.53"/><path class="cls-24" d="M473.37,340.59c-3.67-6.41-8.91-11-14.92-12.76a18.72,18.72,0,0,0-5.28-.75c-6.4,0-12.25,3.22-16.76,8.56h0q-.39.47-.78,1a34.26,34.26,0,0,0-2.79,4.22l0,0a40.52,40.52,0,0,0-1.93,4,46.15,46.15,0,0,0-3.45,17.73v.06c0,1.16,0,2.3.12,3.44h.38v3.55c2.35,16.28,12.76,28.54,25.24,28.54,14.22,0,25.74-15.91,25.74-35.53A44.54,44.54,0,0,0,473.37,340.59Zm-22,9.63a26.28,26.28,0,0,1-11-.44,22.28,22.28,0,0,1-7.27-3.56l1.41-4.08a30.77,30.77,0,0,0,7.42,3.63l.49.17.55.17.58.18.55.15.53.15.54.14.71.16h0l.68.15.37.08.38.07.21,0c.74.14,1.33.22,1.71.27h.09l.11,0a35.87,35.87,0,0,0,9.93-.09A26.1,26.1,0,0,1,451.36,350.22Z"/><path d="M474.3,333.79a11.82,11.82,0,0,1-.81,1.37l-1.58-1.77-1-1.05a16.46,16.46,0,0,0,1.18-4.83,16.71,16.71,0,0,0-1.27-8,23.09,23.09,0,0,1,4,6.34,9.43,9.43,0,0,1,.57,2.56A10.13,10.13,0,0,1,474.3,333.79Z"/><path class="cls-17" d="M478.91,362.62l-8.17-23.56a5.39,5.39,0,0,1,3.82-6.62,7.28,7.28,0,0,1,2.47-.31,7.38,7.38,0,0,1,2.69.64,5.07,5.07,0,0,1,1.35,1.45,6.17,6.17,0,0,1,.68,3.86C481.49,340.63,480.48,349.92,478.91,362.62Z"/><path class="cls-17" d="M435.58,339.06l-1.05,3,0,.05-1.41,4.08-5.67,16.34a.14.14,0,0,0,0,.06c-1.57-12.7-2.58-22-2.84-24.54a6.17,6.17,0,0,1,.68-3.86,4.94,4.94,0,0,1,1.35-1.45l.37-.16a7.51,7.51,0,0,1,2.32-.48,7.28,7.28,0,0,1,2.47.31,5.85,5.85,0,0,1,2.95,2,5,5,0,0,1,.92,2.16A6.43,6.43,0,0,1,435.58,339.06Z"/><path class="cls-17" d="M477.71,334.2a23.79,23.79,0,0,1-4.34,6.39,20.6,20.6,0,0,1-3.27,2.78,24.66,24.66,0,0,1-8.09,3.55c-.87.21-1.75.38-2.65.52a35.87,35.87,0,0,1-9.93.09l-.11,0h-.09q-.86-.11-1.71-.27l-.21,0-.38-.07-.37-.08-.68-.15h0l-.71-.16-.54-.14-.53-.15-.55-.15-.58-.18-.55-.17-.49-.17a30.63,30.63,0,0,1-7.4-3.68c-.59-.41-1.15-.83-1.69-1.27a19.43,19.43,0,0,1-4.13-4.6l-.18-.3-.17-.28-.18-.34a16.55,16.55,0,0,1-1.21-2.69,10.5,10.5,0,0,1-.25-6.84c1-3,3.7-5.42,7.31-7.12,7-3.3,17.46-3.9,26-.76C470.72,321.85,476,330.91,477.71,334.2Z"/><path class="cls-25" d="M462,346.92c-.87.21-1.75.38-2.65.52a35.87,35.87,0,0,1-9.93.09l-.11,0h-.09c-.38-.05-1-.13-1.71-.27l-.21,0-.38-.07-.37-.08-.68-.15h0l-.71-.16-.54-.14-.53-.15-.55-.15-.58-.18-.55-.17-.49-.17a30.77,30.77,0,0,1-7.42-3.63c-.58-.4-1.15-.83-1.7-1.28a19.54,19.54,0,0,1-4.1-4.64l-.18-.3-.17-.28-.18-.34a16.55,16.55,0,0,1-1.21-2.69,10.5,10.5,0,0,1-.25-6.84c1-3,3.7-5.42,7.31-7.12a13.43,13.43,0,0,0-2,6.83,13.28,13.28,0,0,0,.78,4.51,23.17,23.17,0,0,0,3,4.88c.21.27.42.52.63.77h0a23.59,23.59,0,0,0,3.35,3.17,37.08,37.08,0,0,0,7.68,4.48,43.92,43.92,0,0,0,7.2,2.28c1.33.33,2.9.66,4.68,1C460.17,346.67,461.06,346.8,462,346.92Z"/><path class="cls-22" d="M459.36,347.44a26.16,26.16,0,0,1-19,2.34,22.28,22.28,0,0,1-7.27-3.56l1.41-4.08a30.77,30.77,0,0,0,7.42,3.63l.49.17.55.17.58.18.55.15.53.15.54.14.71.16h0l.68.15.37.08.38.07.21,0c.74.14,1.33.22,1.71.27h.09l.11,0A35.87,35.87,0,0,0,459.36,347.44Z"/><path class="cls-15" d="M427,363.48a4,4,0,0,0-1.19-1,3.13,3.13,0,0,0-1.42-.37,2.93,2.93,0,0,0-1.4.37,4.41,4.41,0,0,0-1.2,1,2.71,2.71,0,0,1,.95-1.39,2.59,2.59,0,0,1,1.66-.57A2.72,2.72,0,0,1,427,363.48Z"/><path class="cls-15" d="M424.12,364.92a2.27,2.27,0,0,1-.62-1.54,2.6,2.6,0,0,1,.14-.84,2.12,2.12,0,0,1,.44-.72,3.87,3.87,0,0,0-.29,1.55A4.27,4.27,0,0,0,424.12,364.92Z"/><path class="cls-24" d="M427.93,366.06v3.55c-.17-1.16-.3-2.35-.38-3.55Z"/><path class="cls-11" d="M427.69,370.29a2.78,2.78,0,0,1-.49.23l-.14.06.87,5.11-1.74.48a41,41,0,0,0-1.05-7.13,2.38,2.38,0,0,1-.12-1.42,2.07,2.07,0,0,1,.5-.94,2.26,2.26,0,0,1,.6-.45A2,2,0,0,1,427,366l.58,0c.08,1.2.21,2.39.38,3.55v.3A.65.65,0,0,1,427.69,370.29Z"/><path class="cls-16" d="M426.2,376.17a.91.91,0,0,0,1.73-.48Z"/><g class="cls-26"><path class="cls-27" d="M531.34,575.08a79.86,79.86,0,0,1-24.54,57.5h0a79.67,79.67,0,0,1-83.48,16.92,77.14,77.14,0,0,1-12-5.8c-.5-.28-1-.57-1.43-.86a79.65,79.65,0,1,1,121.5-67.77Z"/></g><g class="cls-26"><path class="cls-27" d="M531.34,194.25a79.48,79.48,0,0,1-28.84,61.33,78.3,78.3,0,0,1-15.29,10l-1.2.61c-.81.38-1.62.75-2.44,1.1s-1.83.78-2.75,1.15c-1.74.68-3.47,1.3-5.27,1.85a6,6,0,0,1-.64.2A78.51,78.51,0,0,1,455,273.82c-1.1.06-2.2.07-3.3.07q-1.23,0-2.43,0A80.3,80.3,0,0,1,430.47,271c-1.57-.44-3.15-.92-4.68-1.47-1.87-.64-3.7-1.33-5.52-2.12-1.57-.68-3.14-1.41-4.66-2.18-.48-.26-1-.49-1.43-.75l-.11-.06c-.59-.31-1.16-.64-1.72-.95q-1.82-1-3.57-2.16a83,83,0,0,1-9.23-6.9,79.65,79.65,0,1,1,131.79-60.2Z"/></g><g class="cls-26"><rect class="cls-28" x="307.7" y="450.19" width="19.02" height="204.76" rx="8.65" transform="translate(376.12 -81.85) rotate(35.16)"/><g class="cls-26"><path class="cls-13" d="M497.38,230.46q-2.24-9.22-4.76-17.7c-2.13-2-4.25-4-6.38-6-1.46-1.39-2.94-2.78-4.41-4.15l-18.56-9.09-4.58.19h-.15l-2.86.11-4,.16h0l-4.69.18h0l-6.31.24-1.14-.09h-.13l-.25,0L429,193.53l-6.17,5.55-6.44,5.81-6,5.38-1.43,4-1.81,5.14c-.73,4-5,20.22-7.58,35a83,83,0,0,0,9.23,6.9q1.75,1.13,3.57,2.16c.56.31,1.13.64,1.72.95l-.07.14.11,0a.75.75,0,0,0,.07-.12c.47.26.95.49,1.43.75,1.52.77,3.09,1.5,4.66,2.18,1.82.79,3.65,1.48,5.52,2.12,1.53.55,3.11,1,4.68,1.47a80.3,80.3,0,0,0,18.79,2.82q1.2,0,2.43,0c1.1,0,2.2,0,3.3-.07a78.51,78.51,0,0,0,19.92-3.37,6,6,0,0,0,.64-.2c1.8-.55,3.53-1.17,5.27-1.85.21-2.84.43-5.66.64-8.49.06-.63.1-1.25.15-1.87.44-5.6.86-11.19,1.3-16.79l3.66,19-3,.22a11.32,11.32,0,0,1,.73,1.1,13.37,13.37,0,0,1,1.73,4.58l1.2-.61a78.3,78.3,0,0,0,15.29-10C501.15,247.53,499.46,239.12,497.38,230.46Z"/><path class="cls-24" d="M439.47,188.88v12a15.49,15.49,0,0,1-4.06,2.59,15.69,15.69,0,0,1-6.45,1.3,62.49,62.49,0,0,1,21.56,25.47,1.42,1.42,0,0,0,1.6,1.38,1.37,1.37,0,0,0,1-1.38A30.59,30.59,0,0,1,469.93,205a14.08,14.08,0,0,1-7.75-1.51,13.77,13.77,0,0,1-3.45-2.59l-.3-11.39Z"/><path class="cls-29" d="M477.31,220.83c-.7-3.05-1.12-4.85-1.32-5.71a97.17,97.17,0,0,1-1.94-12.94q6.26,2.79,12.52,5.62l-.33-1-7.43-23.16a128.72,128.72,0,0,0-3-33.47,123.82,123.82,0,0,0-3.9-13.59,12,12,0,0,0-6-5.62,12.1,12.1,0,0,0-7.77-.44c-1-.84-7.87-6.51-17.26-5a21.37,21.37,0,0,0-12.32,6.92,46.52,46.52,0,0,0-5.83,10.79,47,47,0,0,0-3,17.92q-3.34,17.55-6.68,35.1a18.32,18.32,0,0,0-5,12.4,17.86,17.86,0,0,0,.95,5.64,18.1,18.1,0,0,0,3.06,5.56,25.37,25.37,0,0,0-3.15,5.42,26,26,0,0,0-1.72,6.26,12.93,12.93,0,0,0,1.72,6.27,13.06,13.06,0,0,0,3.9,4.1,40.93,40.93,0,0,0-1.56,15.54,32.83,32.83,0,0,0,.72,4.29c0,.18.07.36.11.55.11.42.2.82.33,1.22.56.31,1.13.64,1.72.95l-.07.14.11,0a.75.75,0,0,0,.07-.12c.47.26.95.49,1.43.75,1.52.77,3.09,1.5,4.66,2.18,1.82.79,3.65,1.48,5.52,2.12.76-3.82,1.74-7.83,3-12a118,118,0,0,1,6.41-16.75,28,28,0,0,0,2-4.05,22.05,22.05,0,0,0,1.23-4.91,27.43,27.43,0,0,0,1.24-4.78c.55-3.14.7-7-.76-13.89-.08-.35-.15-.72-.24-1.1a85.22,85.22,0,0,0-2.57-8.94,84,84,0,0,0-3.49-8.75h6.48v-.11l.11-1.46.25-3.59,0-.37,1.12-5.65,6-30.84,2.6-13.25c.48,2.94.94,5.71,1.36,8.31,3.24,19.66,5.09,29.37,6.13,33.74.15.63.29,1.14.4,1.56a40.39,40.39,0,0,1,1.32,6.74,42.27,42.27,0,0,1,.26,4.23c0,1.11,0,2.07-.08,2.89v0q4.84,2.1,9.67,4.16A26.44,26.44,0,0,0,468,205v.35c0,.24,0,.46,0,.68a24.16,24.16,0,0,0,.88,5.42,24.84,24.84,0,0,0,1.48,3.92A35.76,35.76,0,0,1,472,220.5a37.82,37.82,0,0,1,1,7c0,1.15,0,2.58-.15,4.23,0,.93-.24,3.48-.73,6.54a68.7,68.7,0,0,1-2.18,9.46q-.3,1-.6,2c.27-.26.56-.53.89-.86a28.67,28.67,0,0,0,8.48-18.44c.07-1.24.06-2.3,0-3.07C478.41,225.79,477.91,223.56,477.31,220.83Z"/><path class="cls-29" d="M448.71,226.64l0,0v0s0,0,0,0Z"/><path class="cls-30" d="M455,273.47v.35c-1.1.06-2.2.07-3.3.07q-1.23,0-2.43,0c.13-.77.24-1.56.33-2.35q.93-7.31,1.11-14h0c.11-3.15.11-6.17.06-9.08-.09-3.55-.31-6.94-.59-10.13-.38-4.15-.9-8-1.44-11.44.25,1.15,1.26,5.88,2.39,12.69.3,1.72.59,3.55.88,5.53,0,0,0,.05,0,.07.15,1.06.31,2.16.46,3.28,0,.2.05.4.09.6v0c.39,2.82.77,5.8,1.1,8.92.2,1.86.4,3.77.57,5.71C454.6,267.56,454.82,270.89,455,273.47Z"/><path class="cls-31" d="M439.47,195.81a12.79,12.79,0,0,0,19-6.32c-.22-2.81-.45-5.61-.67-8.42l-19.43,2.43Z"/><path class="cls-24" d="M430.12,178.83a34,34,0,0,0,2.5,3.7,35.8,35.8,0,0,0,8.62,8,9.72,9.72,0,0,0,15.54,0,29.84,29.84,0,0,0,9.26-8.26,30.37,30.37,0,0,0,1.75-2.75,22.73,22.73,0,0,0,1.42-3.91c1.26-4.75.78-9-.77-15.31-2.79-11.27-4.18-16.92-8.2-19.43s-8.35-2.15-11-1.72c-2.78-.25-8.05-.27-12.31,3-4.66,3.61-5.59,9.27-6.91,18.13-1,6.8-1.35,10.73-.77,14.47A33.78,33.78,0,0,0,430.12,178.83Z"/><path class="cls-32" d="M451.5,134.09c-.42-.7-3.12-5.14-8.09-5.78-5.77-.75-9.53,4.28-9.87,4.76a61.68,61.68,0,0,0-4.48,7.43,75.71,75.71,0,0,0-7.18,22.94c-4.94,28.95-6.65,31.44-6,38a63.49,63.49,0,0,0,3.32,14.75c-3.16,5-5.94,11.44-4.21,17.81,1,3.55,2.73,4.85,4.22,8.73s2.48,9.95,0,18.47c11.15-15.82,12.06-21.38,10.36-23.31-.71-.81-2.34-1.52-3.88-3.89a13.7,13.7,0,0,1-1.95-5.18,17.68,17.68,0,0,1,1-8.75c2.48-7.12-1.79-13.42-2.51-26.9-.24-4.46,1.58-12.68,3.59-29.34a70.23,70.23,0,0,1,3.59-15.29,63.45,63.45,0,0,1,6-12.4,12.25,12.25,0,0,1,6.66-4.55A11.15,11.15,0,0,1,451.5,134.09Z"/><rect class="cls-33" x="444.7" y="220.96" width="15.57" height="27.45" rx="2.16"/><circle class="cls-34" cx="447.65" cy="223.78" r="1.03"/><rect class="cls-34" x="450.27" y="223.23" width="3.16" height="1.1" rx="0.55"/><path class="cls-24" d="M487.21,265.54l-1.2.61c-.81.38-1.62.75-2.44,1.1s-1.83.78-2.75,1.15c-1.74.68-3.47,1.3-5.27,1.85-.88-.68-1.81-1.35-2.75-2q-3-2.1-5.82-3.89a20.55,20.55,0,0,0-8.42-5.4c-.71-.23-1.85-.42-4.1-.86-.28,0-.53-.11-.77-.14a29.1,29.1,0,0,0-3-.46h0a3.23,3.23,0,0,0-1.26.05c-1.35.41-1.87,1.41-3,2.55a12.74,12.74,0,0,1-1.65,1.35,7.75,7.75,0,0,1-1.7,1.16,8.53,8.53,0,0,1-2,.67L430.47,271c-1.57-.44-3.15-.92-4.68-1.47-1.87-.64-3.7-1.33-5.52-2.12-1.57-.68-3.14-1.41-4.66-2.18a14,14,0,0,1,.64-2.44c1.3-.36,2.67-.8,4.17-1.35h0a54.42,54.42,0,0,0,7-3.17c.46-.24.9-.49,1.32-.73a56.05,56.05,0,0,0,6-4c.28-3.81.57-7.61.86-11.44a4.52,4.52,0,0,1,.86-2.8,4.64,4.64,0,0,1,2.75-1.78,22.63,22.63,0,0,1,4.16-.38c.44,0,.86,0,1.26,0a22.31,22.31,0,0,1,5.44,1l.05.05c.31.4.62.83.95,1.25l.5.64c1.79-.06,3.59-.09,5.36-.15l2.2-.07a9.83,9.83,0,0,1,1.06-.22,8.2,8.2,0,0,1,9.3,6.48c.13.49.24,1,.37,1.48s.18.75.29,1.12c.42,1.72.86,3.44,1.28,5.18l4.44,2.64,5.52,3.28,1.49.87,1.33.79,2.13,1.26A16.11,16.11,0,0,1,487.21,265.54Z"/><path class="cls-30" d="M483.72,265.75a14.37,14.37,0,0,1-.15,1.5c-.92.4-1.83.78-2.75,1.15-1.74.68-3.47,1.3-5.27,1.85a6,6,0,0,1-.64.2c-.71-.73-1.41-1.48-2.11-2.21a13.09,13.09,0,0,0,3.14-11.61c-.08-.33-.15-.62-.21-.84l5,1a12.51,12.51,0,0,1,.91,1.28,14,14,0,0,1,1.34,2.74A13.28,13.28,0,0,1,483.72,265.75Z"/><path class="cls-30" d="M415.55,262.19a12,12,0,0,0-1.48,2.27l-.07.14.11,0a.75.75,0,0,0,.07-.12c.47.26.95.49,1.43.75,1.52.77,3.09,1.5,4.66,2.18a13.75,13.75,0,0,1,.15-6h0c0-.09,0-.18.05-.26C418.85,261.53,417.2,261.86,415.55,262.19Z"/><path class="cls-13" d="M414.07,264.46l-.07.14.11,0a.75.75,0,0,0,.07-.12l.2-.37c.38-.69.79-1.35,1.17-2l-3.64-.45-3.13-.39q1.75,1.13,3.57,2.16C412.91,263.82,413.48,264.15,414.07,264.46Z"/><path class="cls-29" d="M455.1,137.45a34,34,0,0,1-27,24.77q3-11.19,5.9-22.36Z"/><path class="cls-29" d="M449.67,135.93a23.63,23.63,0,0,0,5.84,10.75,21.51,21.51,0,0,0,14.2,6.49l-1.3-13.51Z"/><path class="cls-31" d="M462.16,206.46l-3.68.8a12.14,12.14,0,0,0-2.39.8c-1.46.66-3.51,1.95-4,2.15h0s1.89-.52,3.53-1a29.73,29.73,0,0,1,2.94-1c.87-.23,1.69-.41,2.45-.55l3-1.23Z"/><path class="cls-30" d="M467.77,212.44a24.55,24.55,0,0,0-5.95,8.52,9.89,9.89,0,0,1,5.95-8.52Z"/><path class="cls-31" d="M451.65,240.17a46.55,46.55,0,0,1,.4,7.72,46,46,0,0,1-1.33,9.59,23.94,23.94,0,0,0,1.69-6.28c.54-4.19-.32-6.58,1.29-8.83A6.77,6.77,0,0,1,457,240Z"/></g><rect class="cls-35" x="405.97" y="603.5" width="1.31" height="5.59"/><path class="cls-36" d="M516.89,620.8a78.68,78.68,0,0,1-10.09,11.78h0l-8.46,5.77-3.7,2.51L484,630.05l-2,13.36v0c-.29,1.89-.56,3.77-.86,5.66a79.76,79.76,0,0,1-57.84.42c.39-8,.75-16,1.12-23.91L418.5,640l-3.06-4.32v0c-.2-.26-.38-.51-.57-.77v-.06c-2.06-2.87-4.09-5.74-6.12-8.62L408,618c-.27-3-.55-6-.84-8.92V609s0,0,0-.05c-.16-1.79-.33-3.57-.49-5.36,0,0,0,0,0-.06a50.44,50.44,0,0,1,28.6-20.1l4.1,2.08.26.13s0,0,.05,0l14.94,7.6,9.84-3,9.79-3,1.72-.53a26.73,26.73,0,0,1,21.86,7.09Q507.35,607.3,516.89,620.8Z"/><path class="cls-37" d="M486.83,563a55.09,55.09,0,0,1-7.68,19.6,35.07,35.07,0,0,0-6.87,11.55h0a37.08,37.08,0,0,0-1.18,4.15,33.47,33.47,0,0,0-.75,7.77,36.66,36.66,0,0,0,4.57,16.83,28.35,28.35,0,0,1-12.51-9.12q1.22,2.53,2.44,5.09c-2.93-2.52-8.37-8-10.06-16.44-1.4-7,.45-13,2.32-19a60.29,60.29,0,0,1,5.34-12.19L442.89,570V583.4l-6.36.21A45.91,45.91,0,0,1,427.41,570a45.09,45.09,0,0,1-3.18-10.6,55.25,55.25,0,0,1,.42-26.3c1.66-6.12,3.6-13.28,10-16.43a16.5,16.5,0,0,1,10.14-1.17,24,24,0,0,1,12.3-3.19c12,.33,23.38,10.71,28.63,26.09A55.43,55.43,0,0,1,486.83,563Z"/><path class="cls-24" d="M430.16,555a7.89,7.89,0,0,0,6.37,4.46l-1.91-7a23.05,23.05,0,0,0-2.18-5.46c-.26-.47-.52-.91-.79-1.33a1.2,1.2,0,0,0-1-.26,1.13,1.13,0,0,0-.53.26V555Z"/><path class="cls-24" d="M442.89,570V583.4h-7.64a21.71,21.71,0,0,0,5.73,5.94,22.57,22.57,0,0,0,13.62,3.91l7.84-22a17.63,17.63,0,0,1-8.95,2.44A17.89,17.89,0,0,1,442.89,570Z"/><path class="cls-31" d="M442.89,579.55a19.92,19.92,0,0,0,19.55-8.34L442.89,570Z"/><path class="cls-24" d="M448.61,522.32a20.71,20.71,0,0,0-6.73,3.53c-10.63,8.46-8.57,24.82-8.32,26.59.56,4,1.41,7.53,1.41,7.53a28.63,28.63,0,0,0,1.43,3.58,27.7,27.7,0,0,0,2.32,3.06,35.06,35.06,0,0,0,3.55,3.46c1.16,1,2.73,2.42,4.65,4a12.47,12.47,0,0,0,12.93-.21c1.24-1.19,2.53-2.52,3.82-4a57.37,57.37,0,0,0,4.88-6.58c.49-1,6.84-14.76-1.06-27.78C461.21,525.13,450.48,522.71,448.61,522.32Z"/><path class="cls-38" d="M457.52,515.79a3.79,3.79,0,0,1,.67.55A4.32,4.32,0,0,1,457.52,515.79Z"/><path class="cls-39" d="M480.06,566.8q-3.88,13.65-7.78,27.3h0c-.39,1.38-.78,2.77-1.18,4.15a33.47,33.47,0,0,0-.75,7.77,19.17,19.17,0,0,1-2-2.25c-8.86-12-.11-30.06.57-31.42a53.06,53.06,0,0,0,5.28-14.57c1-4.71,2.52-12.37,0-20.4-3.37-10.91-13-18.63-15.9-20.9a26.71,26.71,0,0,1,20.06,18.71,68.81,68.81,0,0,1,1.64,31.61Z"/><path class="cls-39" d="M444.6,519.16a9.89,9.89,0,0,0-6.8-1.09,9.69,9.69,0,0,0-4.61,2.43,18.45,18.45,0,0,0-4,6,32,32,0,0,0-1.79,4.55,24.37,24.37,0,0,0-.17,7.84,23.46,23.46,0,0,0,1,4.37,40.38,40.38,0,0,1,.69-7.41,23.09,23.09,0,0,1,2.43-7.29,23.51,23.51,0,0,1,3.27-4.64,24.45,24.45,0,0,1,2.37-2.26A26.3,26.3,0,0,1,441.1,520,26.79,26.79,0,0,1,444.6,519.16Z"/><path class="cls-31" d="M441.06,585.48l3.65.79a12.92,12.92,0,0,1,2.37.79c1.44.66,3.47,1.93,3.94,2.13h0s-1.87-.51-3.49-1a25.4,25.4,0,0,0-2.91-1,24.9,24.9,0,0,0-2.43-.55l-2.93-1.22Z"/><polygon class="cls-29" points="407.97 618 416.63 629.12 421.38 625.24 424.31 608.78 424.44 625.6 418.5 640.02 408.74 626.24 407.97 618"/><path class="cls-24" d="M406.52,603.5v.55a23.44,23.44,0,0,0,.59,4.87s0,0,0,.05a.22.22,0,0,0,0,.1h0a86.24,86.24,0,0,1,1.19,9.38v0c.16,2.21.31,4.78.4,7.76,2,2.88,4.06,5.75,6.12,8.62v.06c.19.26.37.51.57.77v0c-.05.11-.11.2-.15.31a71.34,71.34,0,0,1-3.84,7.39,3,3,0,0,1-.18.3c-.5-.28-1-.57-1.43-.86a79.59,79.59,0,0,1-16-13c.4-3.51.82-7,1.24-10.56l3.06-26-1.26-9.87a51.69,51.69,0,0,1-9.76-8.9,1.21,1.21,0,0,1,.31-1,1.4,1.4,0,0,1,1.9.48q3.33,2.52,6.63,5.09c-1.59-3.83-3.2-7.64-4.82-11.46a.86.86,0,0,1,.11-1.27.83.83,0,0,1,1.16.31,54.77,54.77,0,0,1,3.93,5.79c.66,1.15,1.27,2.27,1.8,3.33.25.44.64.72.9.64s.64-.71.38-1.48c0-.42,0-.82,0-1.25-.07-3.6-.13-7.23-.2-10.84a1.1,1.1,0,1,1,2.07,0q.93,5.42,1.83,10.83c.07.44.15.86.22,1.3.16.95.33,1.92.49,2.87l4.51-3.55a8.28,8.28,0,0,1,2.38-.17,8.19,8.19,0,0,1,2.18.5,4,4,0,0,1,1.9,1.52,3.9,3.9,0,0,1,.66,1.76,1.46,1.46,0,0,1-.44.69,1.27,1.27,0,0,1-1.17.15c-.49-.55-1-1.12-1.48-1.69-.52.09-1.07.22-1.65.37s-1,.27-1.48.42c-.86,1.28-1.73,2.55-2.6,3.83a2.28,2.28,0,0,0-.06,1.43,2.61,2.61,0,0,0,2.4,1.59,6.64,6.64,0,0,1,2.36-1.12,5.46,5.46,0,0,1,1.36-.2,5,5,0,0,1,1.37,0,7,7,0,0,0,.73-1.69,6.55,6.55,0,0,0,.29-1.7,1.31,1.31,0,0,1,1-1.28,1.34,1.34,0,0,1,1.32,1.5,6.08,6.08,0,0,1,.17,2,7.43,7.43,0,0,1-.53,2.18c-2.49,3.15-5,6.32-7.47,9.46l-2.07,2.62a23.71,23.71,0,0,0-.77,3.83,24.58,24.58,0,0,0-.19,3.09Z"/><path class="cls-29" d="M482,643.44l-3-14.26L485.53,606q-.36,7.15-.73,14.3a22.67,22.67,0,0,0,2,6.92,22.27,22.27,0,0,0,1.7,3l9.83,8.15-3.7,2.51L484,630.06Z"/><path class="cls-31" d="M415.29,636a71.34,71.34,0,0,1-3.84,7.39,3,3,0,0,1-.18.3c-.5-.28-1-.57-1.43-.86a52.08,52.08,0,0,0,3.31-7.34c-1.46-3.1-2.95-6.19-4.41-9.27,2,2.88,4.06,5.75,6.12,8.62v.06Z"/><polygon class="cls-31" points="396.87 583.4 400.58 599.5 395.08 619.24 398.14 593.27 396.87 583.4"/><path class="cls-31" d="M414,583.4a5.4,5.4,0,0,0-3,1.67,5.28,5.28,0,0,0-1.19,2.28l-.91-2.68a7,7,0,0,1,2.36-1.12A7.2,7.2,0,0,1,414,583.4Z"/><polygon class="cls-31" points="408.32 574.28 405.97 576.9 403.81 577.83 408.32 574.28"/><path class="cls-31" d="M398.65,582.15a4.56,4.56,0,0,0,2.75.28,4.93,4.93,0,0,0,3.19-2.63,8.34,8.34,0,0,0-1.46,4.26A8.7,8.7,0,0,0,405,589.8Z"/><circle class="cls-40" cx="433.24" cy="555.84" r="0.8"/><path class="cls-41" d="M399.33,573.66a9.29,9.29,0,0,0,2,.19,8.82,8.82,0,0,0,1.78-.19l.21,1.29a7.65,7.65,0,0,1-2,.22,8.54,8.54,0,0,1-1.92-.25Z"/></g><rect class="cls-36" x="574.06" y="332.12" width="135.49" height="15.25"/><rect class="cls-13" x="574.06" y="521.68" width="135.49" height="15.25"/><rect class="cls-42" x="574.06" y="395.83" width="213.61" height="6.17"/><rect class="cls-42" x="574.06" y="381.58" width="213.61" height="6.17"/><rect class="cls-42" x="574.06" y="367.97" width="213.61" height="6.17"/><rect class="cls-42" x="574.06" y="410.08" width="167.38" height="6.17"/><rect class="cls-42" x="574.06" y="584.16" width="213.61" height="6.17"/><rect class="cls-42" x="574.06" y="569.91" width="213.61" height="6.17"/><rect class="cls-42" x="574.06" y="556.3" width="213.61" height="6.17"/><rect class="cls-42" x="574.06" y="598.42" width="167.38" height="6.17"/><rect class="cls-42" x="574.06" y="193.85" width="213.61" height="6.17"/><rect class="cls-42" x="574.06" y="179.6" width="213.61" height="6.17"/><rect class="cls-42" x="574.06" y="208.1" width="167.38" height="6.17"/><path class="cls-43" d="M589,150.76V152l-.44,1.06-8.78,21.37-1,2.43-1.12,2.75-2.54,6.17-61.32,149-34.86,84.72L460.72,463.8,395,623.53l-.79,1.9L385.38,647l-1,2.29H243.88a42.23,42.23,0,0,1-42.11-42.11v-412a42.22,42.22,0,0,1,39.11-42,41.38,41.38,0,0,1,14-2.42Z"/><path class="cls-13" d="M486.62,405.26c-4.07-26.95-12.16-60.69-40.15-79.74-24.58-16.73-56.76-16.84-83.06-14.72,22.56-16.25,51.7-21.07,78.06-10.22C481,316.85,500.14,362.55,486.62,405.26Z"/><path class="cls-13" d="M482.81,316a110,110,0,0,0-122.35-18.41,102.81,102.81,0,0,0-18.35,15.32A106.46,106.46,0,0,0,321,345.67c-17.27,41.95-5.93,88.1,24.95,114.46l-.34.26.34-.25h0a88.46,88.46,0,0,0,17.32,11.59c2.13,1.07,4.31,2.08,6.55,3,33.8,13.92,71.56,5.43,98.39-18.65a105.11,105.11,0,0,0,21.72-27.34,107.77,107.77,0,0,0,5.43-11.29C510,381.73,504,343,482.81,316Zm3.81,89.3c-4.07-26.95-12.16-60.69-40.15-79.74-24.58-16.73-56.76-16.84-83.06-14.72,22.56-16.25,51.7-21.07,78.06-10.22C481,316.85,500.14,362.55,486.62,405.26Z"/><path class="cls-14" d="M444.13,367.89c.39.16,1.69-5.33,5.08-6.31a5.93,5.93,0,0,1,5.64,2,7.44,7.44,0,0,1,1.55,5,14,14,0,0,1-1.77,7.19c-1,2.06-2,3.95-4.09,5.31-1.92,1.22-5.61,2.52-8,.77-1.76-1.3-1.92-3.68-2.1-6.41a11.09,11.09,0,0,1,.88-5.64c.57-1.23.84-1.07,1.22-2,1.35-3.31-1.33-6.88-.78-7.19.37-.21,2,1.13,2.55,3.1C444.92,365.85,443.88,367.79,444.13,367.89Z"/><path class="cls-15" d="M446.45,367.38a3.67,3.67,0,0,1,1.3-1.93,3.81,3.81,0,0,1,2.29-.78,3.61,3.61,0,0,1,2.29.78,3.77,3.77,0,0,1,1.3,1.93,4.32,4.32,0,0,0-7.18,0Z"/><path class="cls-15" d="M450.38,369.37a5.88,5.88,0,0,0,.46-2.14,5.46,5.46,0,0,0-.4-2.15,3.08,3.08,0,0,1,.8,2.16A3.16,3.16,0,0,1,450.38,369.37Z"/><path class="cls-11" d="M445.45,376.79a5.2,5.2,0,0,0,.68.31l.19.08-1.2,7.05,2.4.67c.6-6,1.07-8.77,1.46-9.84a3.47,3.47,0,0,0,.17-2,3,3,0,0,0-.7-1.29,2.8,2.8,0,0,0-.83-.62,2.88,2.88,0,0,0-1.17-.3l-.8.05c-.12,1.67-.29,3.3-.53,4.92v.4A1.11,1.11,0,0,0,445.45,376.79Z"/><path class="cls-16" d="M447.52,384.9a1.3,1.3,0,0,1-1.57.64,1.27,1.27,0,0,1-.83-1.31Z"/><path class="cls-14" d="M376.32,367.94c-.39.16-1.69-5.33-5.09-6.31a5.92,5.92,0,0,0-5.64,2c-1.37,1.55-1.46,3.36-1.55,5a14,14,0,0,0,1.77,7.19c1,2.06,2,3.95,4.1,5.31,1.92,1.23,5.61,2.52,8,.77,1.76-1.3,1.92-3.68,2.1-6.41a11.09,11.09,0,0,0-.88-5.64c-.57-1.23-.85-1.07-1.22-2-1.35-3.31,1.32-6.88.77-7.19-.36-.21-2,1.13-2.54,3.1C375.52,365.9,376.57,367.84,376.32,367.94Z"/><path class="cls-17" d="M446.47,325.52l-.13,2.08-7-1.17-3.31-.55-1.81-.3c.16-.35.33-.74.51-1.16a23.13,23.13,0,0,0,1.63-6.66,23.39,23.39,0,0,0-1.75-11,22,22,0,0,1,11.84,18.8Z"/><path class="cls-18" d="M345.56,460.39l.34-.26h0Z"/><path class="cls-18" d="M468.17,456.07c-26.83,24.08-64.59,32.57-98.39,18.65-2.24-.92-4.42-1.93-6.55-3a88.46,88.46,0,0,1-17.32-11.59c.45-.33.9-.63,1.32-.9.61-.4,4-2.22,11-5.38l.54-.25.75-.34c2.35-1.11,5.29-2.5,9-4.4,5-2.57,8.93-4.95,11.48-6.57l.4-.31c.41-.34.86-.71,1.32-1.13.3-.28.62-.57.94-.9a28.87,28.87,0,0,0,2-2.17l.51-.62c.45-.56.89-1.16,1.33-1.8l.35-.54c.27-.41.53-.83.79-1.27.16-.28.32-.56.46-.84l.17-.31c.2-.35.37-.7.53-1s.33-.7.48-1c.3-.69.57-1.36.8-2s.45-1.32.62-2a30.42,30.42,0,0,0,1-5c0-.15,0-.29,0-.42a.45.45,0,0,0,0-.11c0-.25,0-.49.06-.71s0-.45,0-.65c.06-.39.11-.78.16-1.18s.11-.8.15-1.21c.1-.82.19-1.66.28-2.52,0-.32.06-.65.08-1l.09-1.13c0-.38,0-.76.07-1.14l0-.51a1.79,1.79,0,0,1,0-.23c0-.32,0-.64,0-1,0,0,0,0,0,0s0-.27,0-.39v0h0s0,0,0,0h0v0c0-.68,0-1.38.05-2.09s0-1.33,0-2c0-1.52,0-3.09-.11-4.69s-.18-3.26-.34-5c-.23-2.29-.53-4.49-.87-6.59-.09-.53-.18-1-.27-1.56-.28-1.54-.59-3-.91-4.42h40.86c-.32,1.41-.63,2.88-.91,4.42-.11.6-.22,1.2-.31,1.82l-.21,1.33c-.08.54-.16,1.08-.23,1.63-.15,1.1-.28,2.22-.39,3.37-.16,1.68-.27,3.32-.35,4.93-.12,2.72-.14,5.33-.06,7.81v.25l0,.62c0,.21,0,.42,0,.62,0,.41,0,.82.07,1.22a1.67,1.67,0,0,0,0,.38c0,.74.09,1.48.14,2.19,0,.3.05.61.07.9a1,1,0,0,1,0,.17c0,.44.09.88.14,1.31.14,1.29.3,2.53.47,3.72,0,.1,0,.2,0,.31s0,.22,0,.33,0,.47.06.72.07.69.12,1.07c0,.18.05.37.08.57.09.64.21,1.33.37,2.06l.06.29c.18.8.41,1.66.69,2.54a32.29,32.29,0,0,0,1.63,4.1c.35.7.73,1.42,1.15,2.14l.47.79a29.55,29.55,0,0,0,2.5,3.45l.51.59c.16.19.33.38.5.56q.5.54,1,1c.32.32.64.62.94.9,0,0,0,0,0,0,.31.29.61.54.89.78l.83.67c2.56,1.62,6.5,4,11.47,6.56l2.62,1.31c3.14,1.58,5.63,2.75,7.67,3.68C465.23,454.68,466.82,455.42,468.17,456.07Z"/><path class="cls-19" d="M441.62,442.3A65.68,65.68,0,0,1,413.41,450a65,65,0,0,1-19-2.05A66.08,66.08,0,0,1,380,442.3a30.84,30.84,0,0,0,11.83-22.88,100.36,100.36,0,0,0-1.45-36.7h40.84a98.88,98.88,0,0,0-2,12.58,101,101,0,0,0,.58,24.12,30.84,30.84,0,0,0,11.83,22.88Z"/><path class="cls-20" d="M345.9,460.13h0Z"/><path class="cls-20" d="M363.23,471.72a88.46,88.46,0,0,1-17.32-11.59c.45-.33.9-.63,1.32-.9.61-.4,4-2.22,11-5.38l.54-.25.75-.34c0,.32.1.65.16,1C360.48,459.08,361.62,465.12,363.23,471.72Z"/><path class="cls-22" d="M410.14,404.17a134.71,134.71,0,0,1-1.57,17.39,60,60,0,0,1-6.21,16.12c-1.93,3.43-3.7,6.52-7.18,9.58l-.75.64A66.08,66.08,0,0,1,380,442.3a30.84,30.84,0,0,0,11.83-22.88,100.36,100.36,0,0,0-1.45-36.7h18.54A134.23,134.23,0,0,1,410.14,404.17Z"/><ellipse class="cls-23" cx="410.22" cy="376.97" rx="30.2" ry="39.4"/><path class="cls-24" d="M438.08,335.82c-5.08-8.86-12.31-15.24-20.61-17.63a26.21,26.21,0,0,0-7.29-1c-8.84,0-16.92,4.45-23.14,11.82h0c-.37.44-.73.88-1.08,1.33a47,47,0,0,0-3.86,5.82l0,.06a51.67,51.67,0,0,0-2.67,5.49,63.69,63.69,0,0,0-4.77,24.48v.08c0,1.6.06,3.18.17,4.74h.52v4.92c3.25,22.47,17.62,39.41,34.86,39.41,19.63,0,35.55-22,35.55-49.07A61.53,61.53,0,0,0,438.08,335.82Zm-30.41,13.29a36,36,0,0,1-15.17-.61,30.55,30.55,0,0,1-10-4.91q1-2.82,2-5.63a42.41,42.41,0,0,0,10.24,5l.67.23.76.25.81.23.75.22.73.2.75.19,1,.23h0l.93.21.51.11.53.1.29.05c1,.19,1.83.31,2.36.37l.12,0,.15,0a49.61,49.61,0,0,0,13.72-.12A36.06,36.06,0,0,1,407.67,349.11Z"/><path d="M439.36,326.43a16.36,16.36,0,0,1-1.13,1.89l-2.18-2.44-1.3-1.46a23.13,23.13,0,0,0,1.63-6.66,23.39,23.39,0,0,0-1.75-11,31.84,31.84,0,0,1,3.67,5.11,31.28,31.28,0,0,1,1.8,3.64,13.06,13.06,0,0,1,.79,3.54A14,14,0,0,1,439.36,326.43Z"/><path class="cls-17" d="M445.72,366.24l-11.28-32.53a7.43,7.43,0,0,1,5.28-9.14,10,10,0,0,1,3.4-.44,10.34,10.34,0,0,1,3.73.89,7,7,0,0,1,1.86,2,8.39,8.39,0,0,1,.93,5.32C449.28,335.87,447.9,348.7,445.72,366.24Z"/><path class="cls-17" d="M385.89,333.71c-.49,1.39-1,2.78-1.45,4.18a.14.14,0,0,0,0,.07q-1,2.81-2,5.63l-7.83,22.57,0,.08c-2.17-17.54-3.56-30.36-3.91-33.89a8.39,8.39,0,0,1,.93-5.32,7,7,0,0,1,1.86-2l.51-.22a10.39,10.39,0,0,1,3.22-.67,10,10,0,0,1,3.4.44,8,8,0,0,1,4.08,2.76,7,7,0,0,1,1.27,3A9,9,0,0,1,385.89,333.71Z"/><path class="cls-17" d="M444.07,327a33.39,33.39,0,0,1-6,8.83,29.34,29.34,0,0,1-4.52,3.84,34,34,0,0,1-11.18,4.89c-1.2.3-2.42.54-3.65.73a49.61,49.61,0,0,1-13.72.12l-.15,0-.12,0c-.79-.1-1.58-.23-2.36-.37l-.29-.05-.53-.1-.51-.11-.93-.21h0l-1-.23-.75-.19-.73-.2-.75-.22-.81-.23-.76-.25-.67-.23a42.6,42.6,0,0,1-10.22-5.08c-.81-.56-1.59-1.15-2.34-1.76a26.74,26.74,0,0,1-5.69-6.34c-.09-.14-.18-.28-.26-.42l-.23-.39-.26-.46A25.52,25.52,0,0,1,374,324.8a14.65,14.65,0,0,1-.34-9.45c1.4-4.14,5.11-7.48,10.09-9.83,9.66-4.56,24.12-5.39,35.86-1C434.42,309.94,441.71,322.45,444.07,327Z"/><path class="cls-25" d="M422.38,344.55c-1.2.3-2.42.54-3.65.73a49.61,49.61,0,0,1-13.72.12l-.15,0-.12,0c-.53-.06-1.34-.18-2.36-.37l-.29-.05-.53-.1-.51-.11-.93-.21h0l-1-.23-.75-.19-.73-.2-.75-.22-.81-.23-.76-.25-.67-.23a42.41,42.41,0,0,1-10.24-5c-.81-.55-1.59-1.14-2.35-1.77a26.46,26.46,0,0,1-5.66-6.4c-.09-.14-.18-.28-.26-.42l-.23-.39-.26-.46A25.52,25.52,0,0,1,374,324.8a14.65,14.65,0,0,1-.34-9.45c1.4-4.14,5.11-7.48,10.09-9.83A18.45,18.45,0,0,0,381,315a18.19,18.19,0,0,0,1.07,6.22,32,32,0,0,0,4.11,6.74c.29.37.59.72.88,1.06h0a32.74,32.74,0,0,0,4.62,4.38,51,51,0,0,0,10.6,6.19,62.41,62.41,0,0,0,9.95,3.15c1.84.45,4,.91,6.46,1.32C419.84,344.22,421.08,344.4,422.38,344.55Z"/><path class="cls-22" d="M418.73,345.28a36.21,36.21,0,0,1-26.23,3.22,30.55,30.55,0,0,1-10-4.91q1-2.82,2-5.63a42.41,42.41,0,0,0,10.24,5l.67.23.76.25.81.23c.25.08.5.16.75.22l.73.2.75.19c.34.09.66.16,1,.23h0l.93.21.51.11.53.1.29.05c1,.19,1.83.31,2.36.37l.12,0,.15,0A49.61,49.61,0,0,0,418.73,345.28Z"/><path class="cls-15" d="M374,367.43a4.32,4.32,0,0,0-7.18,0,3.77,3.77,0,0,1,1.3-1.93,3.7,3.7,0,0,1,2.3-.78,3.87,3.87,0,0,1,2.28.78A3.56,3.56,0,0,1,374,367.43Z"/><path class="cls-15" d="M370.07,369.42a3.17,3.17,0,0,1-.07-4.29,5.51,5.51,0,0,0,.07,4.29Z"/><path class="cls-24" d="M375.32,371v4.92c-.23-1.62-.41-3.25-.52-4.92Z"/><path class="cls-11" d="M375,376.84a4,4,0,0,1-.67.31l-.2.08,1.2,7-2.39.67c-.6-6-1.08-8.77-1.46-9.84a3.38,3.38,0,0,1-.17-2,3,3,0,0,1,.7-1.29,2.74,2.74,0,0,1,.83-.62,2.84,2.84,0,0,1,1.17-.3l.8.05c.11,1.67.29,3.3.52,4.92v.4A1,1,0,0,1,375,376.84Z"/><path class="cls-16" d="M372.93,385a1.3,1.3,0,0,0,1.57.64,1.27,1.27,0,0,0,.82-1.31Z"/><path class="cls-44" d="M368.09,293q-3.9,2.09-7.63,4.52a101.55,101.55,0,0,0-13.14,10.21l11.35,6.7q2.31-1.92,4.74-3.66a86.91,86.91,0,0,1,14.12-8.28ZM482.81,316a89,89,0,0,0-66.53-34.19l2.63,13.3a76.71,76.71,0,0,1,22.56,5.51c39.41,16.22,58.55,61.69,45.27,104.29l10.14,8.54C509.55,378.84,503.2,342,482.81,316Zm-92.94-31.39,9.84,11.16q3.33-.53,6.7-.77l-5-12.57A92.38,92.38,0,0,0,389.87,284.57ZM418.65,467a77.53,77.53,0,0,1-58.95-12.77l-.91-.65c-30.37-22.07-42.29-64.69-26.43-103.24a92.34,92.34,0,0,1,6.38-12.69l-11.62-4.6a106.62,106.62,0,0,0-6.17,12.6c-17.27,41.95-5.93,88.1,24.95,114.46h0a88.46,88.46,0,0,0,17.32,11.59c2.13,1.07,4.31,2.08,6.55,3a89.54,89.54,0,0,0,54.3,4.39Z"/><path class="cls-45" d="M486.62,405.26c-4.07-26.95-12.16-60.69-40.15-79.74-24.58-16.73-56.76-16.84-83.06-14.72,22.56-16.25,51.7-21.07,78.06-10.22C481,316.85,500.14,362.55,486.62,405.26Z"/><path class="cls-46" d="M358.67,314.46a90.9,90.9,0,0,0-19.93,23.21l-11.62-4.6a105.7,105.7,0,0,1,15-20.2c1.68-1.77,3.42-3.48,5.21-5.11Z"/><path class="cls-46" d="M496.88,413.41c-.49,1.35-1,2.69-1.56,4a107.77,107.77,0,0,1-5.43,11.29,105.11,105.11,0,0,1-21.72,27.34,99.19,99.19,0,0,1-44.09,23L418.65,467a85.17,85.17,0,0,0,37.06-16.85,91.62,91.62,0,0,0,28.2-37.42c1-2.48,1.93-5,2.71-7.49l.12-.39Z"/><path class="cls-47" d="M399.71,295.73a82.73,82.73,0,0,0-22.18,6.79L368.09,293a97.22,97.22,0,0,1,21.78-8.46Z"/><path class="cls-47" d="M418.91,295.07a76.75,76.75,0,0,0-12.5-.11l-5-12.57a88.92,88.92,0,0,1,14.87-.62Z"/><circle class="cls-5" cx="953.04" cy="81.16" r="19.3"/><circle class="cls-48" cx="948.87" cy="71.77" r="20.34"/><circle class="cls-5" cx="130.61" cy="238.94" r="16.02"/><circle class="cls-49" cx="127.15" cy="231.15" r="16.88"/><path class="cls-50" d="M85.17,775.18c.83,4.06,7.08,7.44,12.2,7.11,9.09-.58,13-12.78,24.16-30.75.49-.79,9.21-12.19,26.68-35.07,30.23-39.52,28.49-35,32.55-41.93,20.28-34.74,14.82-64.69,21.34-65.06a3.55,3.55,0,0,1,2.69,1.41c6.77,6.83,14.7,38.15,17.63,65.69,2.28,21.53-.28,24,2.8,63.53.46,5.95.89,10.64,1.28,14.39,2,18.82,3.05,14.22,3.3,27.54.27,15.25-1.07,25.07,4.82,28.73,4.6,2.84,12.17,1,16.28-3,4.24-4.27,4.12-10.34,4.06-16.53-.15-12,1.71-24,0-35.83-4.27-29.56,6.68-42.91,6.1-95.07-.31-26.59-3.39-46.38-7.78-74.29-.46-3-3.2-14.7-8.63-37.63-.61-2.54-1.22-5.22-1.89-8-3.78-16-4.85-20.09-9.15-23.39-5-3.81-10-3.17-18.21-1.92a152.24,152.24,0,0,1-27.54,2.44c-19.64-.12-23.94-4-29.49.52-4.6,3.69-6.16,10-6.1,42.7.06,19.48.52,30,.52,30,2.62,58.89,5.09,63.46-.52,72.67-6.31,10.46-13,10.4-24.64,28.73-1.4,2.2-1.8,3-9.91,19.06-27.94,55.39-27.79,55.24-28.21,55.66C88,768.32,84.5,771.7,85.17,775.18Z"/><path class="cls-51" d="M204.79,610.89c6.77,6.83,14.7,38.15,17.63,65.69,2.28,21.53-.28,24,2.8,63.53.46,5.95.89,10.64,1.28,14.39,1.07-2.53,2.17-5.33,3.3-8.29,7.56-19.77,5.33-37.64,3.81-48.8a142.21,142.21,0,0,0-5.34-23.64c-15.09-49.43-11.56-94.42-16-94.54C209.76,579.17,206.89,593.29,204.79,610.89Z"/><path class="cls-51" d="M215.4,515c.31,3.91,1.39,9.15,5.25,13.11,2.88,3,5.76,3.62,9.15,5.34,4.26,2.17,9.79,6.29,14.85,14.89-.61-2.54-1.22-5.22-1.89-8-3.78-16-4.85-20.09-9.15-23.39C228.61,513.14,223.61,513.78,215.4,515Z"/><path class="cls-36" d="M318.21,497.65c-5.85,3.44-12.84-.52-30.5-8.39-5.91-2.62-10.52-4.61-14.15-6.1-13.11-5.4-13.48-4.73-16.34-7.62-13.09-13.21-11.26-33.43-15.53-36.82a2,2,0,0,0-1.25-.55c-2.68-.15-4.91,4.43-6.86,8.39-2.23,4.58-5,12.6-3.05,32.79,1.25,12.84.46,16,3.05,19.06s5.12,3,13,6.1c8.62,3.42,18,7.16,21.94,13l-8.63-4.28c-7.49-3.71-17.61-8.72-29.78-14.7L214,508.58A280.83,280.83,0,0,0,251,527c5.29,2.16,10.43,4.06,15.37,5.72l-.05,0c-6.28,4-14.85-6.37-31.26-10.67-9.11-2.38-10.46-.25-35.07.76-26.2,1.06-39.4,1.49-45-3.81-6.77-6.44-1.44-12.33-4.58-42.7-2.56-24.92-4-38.83-9.91-54.9-1.4-3.84-4-10.25-3.81-19.06.06-2.56.27-13.42,6.52-22.39,8.45-12,23.27-14.12,40-16.5,18.17-2.56,32.26-.09,41.17,1.53,15.55,2.84,23.3,4.27,29,9.15,9.88,8.51,6.22,18.39,15.25,54.9,3.75,15.18,5.64,22.78,8.42,26.68C292.38,477.18,323,474.25,324.31,487,324.77,491.49,321.35,495.82,318.21,497.65Z"/><rect class="cls-44" x="287.37" y="435.87" width="19.02" height="204.76" rx="8.65" transform="translate(364.17 -72.75) rotate(35.16)"/><path class="cls-36" d="M266.41,532.68C261.47,531,256.33,529.12,251,527a280.83,280.83,0,0,1-37-18.38l16.1-10.09c12.17,6,22.29,11,29.78,14.7l8.63,4.28a10.72,10.72,0,0,1,1.67,3.81C271,525.07,269.85,530.44,266.41,532.68Z"/><path class="cls-52" d="M308.69,549.68a5,5,0,0,1-2.61,3c-2.14.88-4.54-.41-9-2.53a32.6,32.6,0,0,1-4.07-2.3,26.38,26.38,0,0,1-4.28-3.46A27.13,27.13,0,0,1,284,538c-5.5-1.46-11.37-3.2-17.54-5.3,3.44-2.24,4.59-7.61,3.77-11.4a10.72,10.72,0,0,0-1.67-3.81c3.95,2,6.44,3.24,9.24,4.69q8.21,4.25,16.07,8.53l.06,0q3.66,2,7.25,4a6.75,6.75,0,0,1,4.29,1.06,7.32,7.32,0,0,1,1.89,1.8,4,4,0,0,1-1.78,1.55,3.91,3.91,0,0,1-.83.25A5,5,0,0,1,302,539a13,13,0,0,1,6.19,6.33A6.54,6.54,0,0,1,308.69,549.68Z"/><path class="cls-52" d="M293.82,530.69,308.61,537a1.37,1.37,0,0,1,1,1.62c-.16.61-1,.86-1.43,1a6.76,6.76,0,0,1-4.1-.38,31.69,31.69,0,0,1-4.27-1.65,9.56,9.56,0,0,1-4.14,0,9.36,9.36,0,0,1-3.86-1.83Q292.79,533.2,293.82,530.69Z"/><polygon class="cls-29" points="147.45 424.45 183.29 502.22 230.56 521.14 173.09 514.06 147.45 424.45"/><polygon class="cls-29" points="233.58 498.41 196.25 479.35 181.76 424.45 200.82 472.79 233.58 498.41"/><path class="cls-29" d="M241.69,438.72c4.27,3.39,2.44,23.61,15.53,36.82,2.86,2.89,3.23,2.22,16.34,7.62a92.41,92.41,0,0,1-8.69-12.2C249,443.57,257,413.41,252.67,413c-1.95-.18-4.09,6-8.39,18.3C243.31,434.09,242.45,436.53,241.69,438.72Z"/><path class="cls-7" d="M201.52,381.48c-2.22-2.39-5.12-5.55-8.49-9.29-6.25-6.95-7.1-8.16-7.69-10.09-1.54-5,.92-7.22,1.06-14.33s-2.21-11-2.92-14.33c-1.39-6.49,2.09-17.09,24.72-34.82,10.67,19.91,15.72,24.95,18.19,24.5,5.38-1,1,10,1,10L231.63,355l-17.13.38Q208,368.45,201.52,381.48Z"/><path class="cls-39" d="M228.59,340s-8.54-3.32-10.15-2.31c-2.21,1.37-.26,7,1,7.13.55.06.74-.85,2.31-1.9a8.17,8.17,0,0,1,3-1.25,7.85,7.85,0,0,1,4.47.49Z"/><path class="cls-39" d="M229.39,346.71s5.79,3.87,4.66,6.71-2.2,3.35-5,3.38-18.43-3.14-18.43-3.14l-12.76-32.12,16.54,22.62S219.27,345.29,229.39,346.71Z"/><path class="cls-39" d="M216.05,313.92a2.79,2.79,0,0,1-.74,2,4.17,4.17,0,0,1-1.84,1.19,4.49,4.49,0,0,1-2.12.13,5.82,5.82,0,0,1-1-.32,4,4,0,0,1-.89-.6,7.15,7.15,0,0,1,1-.38l.87-.27,1.57-.47c.49-.16,1-.32,1.48-.52A16.85,16.85,0,0,0,216.05,313.92Z"/><path class="cls-39" d="M210.88,287.63a21.53,21.53,0,0,1-6.5,1.75,24.15,24.15,0,0,1-6.75-.38c-6.14-1.1-6.15-2.82-10-3.1-.78-.06-6.78-.35-10.84,4a12.36,12.36,0,0,0-3,6.31l1,11.49s-11.26-3.06-9.63,3.07,2.45,24.59,20.4,27.62c8.32,1.4,11,.7,11.52-.46.32-.73-.8-1.47-1.77-3.29a12,12,0,0,1-1.16-7.24c-3.6-1.54-5.74-4.25-5.29-6.37.62-2.91,6-4,6.45-4.13,2.89-.58,4.4.26,6.41-.86a6.46,6.46,0,0,0,2.78-3.35c2.21.09,14.84.39,22.67-8.82,6-7.05,6.3-16.33,5.84-16.49s-1.52,4.69-4.62,5.25c-.59.1-1.33.06-3.13-.75-3.86-1.76-4.65-3.74-7-4.75C216.78,286.49,214.47,286.16,210.88,287.63Z"/><path class="cls-53" d="M185.33,361.33a9.34,9.34,0,0,0-6,.5,9.09,9.09,0,0,0-3.41,2.7l24.48,28.14L202.85,382Z"/><path class="cls-53" d="M210.89,362.75a9.5,9.5,0,0,1,9.54,1.52q-7.5,13.13-15,26.25l-4.85-7.21Z"/><path class="cls-52" d="M342.13,496.38c-.4-3.11-3.08-6.48-5.5-6.25-1.71.16-3.33,2.1-3,3.12s2.71.75,3,1.88a1.74,1.74,0,0,1-1.38,1.87c-1.18,0-1.33-2.57-2.75-3-2.22-.68-7.63,4-6.5,8.25.76,2.87,4.14,4.43,6.75,4.5C338,506.9,342.74,501.22,342.13,496.38Z"/></g></svg>