<svg xmlns="http://www.w3.org/2000/svg" xmlns:xlink="http://www.w3.org/1999/xlink" viewBox="0 0 1200 800"><defs><style>.cls-1,.cls-7{fill:none;}.cls-2{fill:#ddeef2;}.cls-3{fill:#81afb5;}.cls-4{fill:#c2e3ec;}.cls-5{fill:#00637f;}.cls-6{fill:#194556;}.cls-7{stroke:#f8f9fa;stroke-width:1.7px;}.cls-27,.cls-7{stroke-miterlimit:10;}.cls-8{fill:#e47f1c;}.cls-9{fill:#af5c17;}.cls-10{clip-path:url(#clip-path);}.cls-11{fill:#c87629;}.cls-12{fill:#994d17;}.cls-13{fill:#eda683;}.cls-14{fill:#1b4e61;}.cls-15{fill:#ed826e;}.cls-16{clip-path:url(#clip-path-2);}.cls-17{fill:#f4b490;}.cls-18{fill:#c56b5d;}.cls-19{fill:#1b1f22;}.cls-20{fill:#fff;}.cls-21{fill:#ed8c6e;}.cls-22{fill:#e26555;}.cls-23{fill:#999c9d;}.cls-24{fill:#233235;}.cls-25{opacity:0.26;}.cls-26{fill:#676b6d;}.cls-27{fill:#efbba0;stroke:#233235;stroke-width:2.8px;}.cls-28{fill:#333;}</style><clipPath id="clip-path"><circle class="cls-1" cx="278.59" cy="306.59" r="205.59"/></clipPath><clipPath id="clip-path-2"><circle class="cls-1" cx="941.76" cy="506.75" r="205.59"/></clipPath></defs><g id="Слой_1" data-name="Слой 1"><rect class="cls-2" y="-0.19" width="1200" height="805.28"/></g><g id="Слой_3" data-name="Слой 3"><circle class="cls-3" cx="928.8" cy="512.18" r="205.59"/><circle class="cls-3" cx="289.82" cy="313.78" r="205.59"/><circle class="cls-4" cx="278.59" cy="306.59" r="205.59"/><path class="cls-5" d="M465.64,95.06v34.19a36.86,36.86,0,0,0,1,8.45l-1-.14V190.8A6.61,6.61,0,0,0,476.28,196l36.87-28.39a6.55,6.55,0,0,1,4-1.38h113.9a40,40,0,0,0,4.39-.22,43.8,43.8,0,0,0,39.27-43.42V95.06a43.78,43.78,0,0,0-43.66-43.64H509.28A43.76,43.76,0,0,0,465.64,95.06Z"/><circle class="cls-4" cx="941.76" cy="506.75" r="205.59"/><path class="cls-6" d="M465.64,129.25a36.86,36.86,0,0,0,1,8.45l-1-.14V190.8A6.61,6.61,0,0,0,476.28,196l36.87-28.39a6.55,6.55,0,0,1,4-1.38h113.9a40,40,0,0,0,4.39-.22C580,154.88,501.41,134.43,465.64,103.53Z"/><circle class="cls-7" cx="629.98" cy="108.19" r="16.24"/><circle class="cls-7" cx="575.39" cy="108.19" r="16.24"/><circle class="cls-7" cx="520.21" cy="108.19" r="16.24"/><path class="cls-8" d="M786.28,250.77V285a36.26,36.26,0,0,1-1,8.45l1-.13v53.24a6.61,6.61,0,0,1-10.64,5.24l-36.87-28.39a6.55,6.55,0,0,0-4-1.38H620.84a42.59,42.59,0,0,1-4.39-.22,43.8,43.8,0,0,1-39.27-43.42V250.77a43.78,43.78,0,0,1,43.66-43.64h121.8A43.76,43.76,0,0,1,786.28,250.77Z"/><path class="cls-9" d="M786.28,285a36.26,36.26,0,0,1-1,8.45l1-.13v53.24a6.61,6.61,0,0,1-10.64,5.24l-36.87-28.39a6.55,6.55,0,0,0-4-1.38H620.84a42.59,42.59,0,0,1-4.39-.22c55.44-11.17,134.06-31.62,169.83-62.53Z"/><rect class="cls-7" x="719.35" y="242.42" width="33.63" height="33.63" transform="translate(1472.33 518.47) rotate(-180)"/><rect class="cls-7" x="659.67" y="242.42" width="33.63" height="33.63" transform="translate(1352.97 518.47) rotate(-180)"/><rect class="cls-7" x="599.63" y="242.42" width="33.63" height="33.63" transform="translate(1232.9 518.47) rotate(-180)"/><g class="cls-10"><path class="cls-11" d="M125.42,354.7c0,.41.07.82.11,1.24,3.49,32.93,22.61,49.39,40.83,57.62A96.33,96.33,0,0,0,202,421.79s121.34-38.13,162.67-78.17c17.06-16.52,21.38-34.41,21.86-38.41.27-2.34.69-12.09.31-15.28,0-.2-.14-1.41-.27-3.06-.08-.81-.13-1.85-.15-3.3-.46-29.23,11.83-41.15,14.27-60.76a70,70,0,0,0-.3-18.21c-2.08-14.94-8.85-30.53-22-37.35-16.16-8.36-39-2.1-56.44,15,0,0-38.56-28.22-59.6,22.43s-56.8,57.91-79.24,60.8S119,289.8,125.42,354.7ZM261.9,316.48c-.63-9.68,24.15-13.63,25.54-30.26,0-.55.07-1.05.07-1.52-.09-5.8-3.39-8.41-1.77-16.16,1.24-6,3.49-5.9,8.71-18.15,2.67-6.28,5.26-13.77,2.46-16.65-.82-.83-2.25-1.44-2.11-2.18s2.11-.58,4.21-1.43c4.42-1.8,6-7.06,6.9-6.64.57.26-.4,2.3.51,3.23a2.64,2.64,0,0,0,2,.7c2.78,0,6.78-2.3,6.78-2.3,17.67-17.11,25.18-20.33,25.18-20.33,4.27-1.82,8.16-3.47,13.4-3,9.42.85,17.5,8.06,21,16.16-.19,16.17-3.24,31.72-6.42,43.71a191,191,0,0,1-7.53,22.82s-10.51,22.62-26.12,19.73-18.58-10.14-20.16-13c0,0-7,16.63-4.9,35.45a8,8,0,0,1-.71,4.56C303.77,341.11,262.68,328.64,261.9,316.48Z"/><path class="cls-12" d="M125.42,354.7c0,.41.07.82.11,1.24,3.49,32.93,22.61,49.39,40.83,57.62A96.33,96.33,0,0,0,202,421.79s121.34-38.13,162.67-78.17c17.06-16.52,21.38-34.41,21.86-38.41.27-2.34.69-12.09.31-15.28,0-.2-.14-1.41-.27-3.06-.08-.81-.13-1.85-.15-3.3-.46-29.23,11.83-41.15,14.27-60.76a70,70,0,0,0-.3-18.21c-3.24,16.37-9.42,34.13-22.8,48.68a62.73,62.73,0,0,1-9.24,8.36c-20.3,14.76-41,7.53-80.79,23.06a218.45,218.45,0,0,0-21.46,9.83c-46.49,24.25-50,44.53-91.87,55.74C153.25,355.87,137,355.39,125.42,354.7Z"/><path class="cls-13" d="M241.46,348.89c5.06,8.18,36.25-12,67.78,2.19a61.6,61.6,0,0,1,18.59,13.12q-1.72-5.88-3.28-12a363.23,363.23,0,0,1-10.06-61,4.44,4.44,0,0,1,.59,1.08s0,0,0,.05c1.81,3.34,5.73,9.31,19.55,11.89a14.53,14.53,0,0,0,2.75.26c14.08,0,23.37-20,23.37-20a126.11,126.11,0,0,0,6.69-14.33c0-.05,0-.09,0-.13A124.49,124.49,0,0,0,376,236.34c.89-9.42,1.56-18-3.74-25-5.93-7.91-15.86-9.27-18.51-9.54A35,35,0,0,0,341,203c-18.24,4.95-33.64,21.65-35.11,20.54,0,0,0,0,0,0a5.28,5.28,0,0,0-2.42-2.8c-1.15-.94-4.18-1.15-7.68-.07a14.33,14.33,0,0,0-3.82,3c-2.53,2.82-3.16,6.06-3.69,8-1.83,6.73-.46,11.9-.79,17.55,0,0,.12,3.39-1.77,19.32C282.67,294.36,234.84,338.19,241.46,348.89Z"/><path class="cls-14" d="M459,811.34c-6,5.08-16-4.48-58.82-8.74-20.06-2-28.62-.64-34.11,0-17.1,2-19.73,6.23-48.1,10.92-33.29,5.51-36.58,1.7-54.67,7.65-25.11,8.27-25.71,17.9-49.19,24.06-9.7,2.54-37.08,9.74-48.1-1.1-3.92-3.85-4.87-9.11-3.77-15.84,1.67-10.25,8.1-23.92,16-41.21,10.12-22.22,22.62-50.42,30.42-85.07,6.65-29.47,5.15-80.87,2.19-183.67-1.69-58.44-4.12-86.53,8.75-126.81,7.73-24.19,23.83-77.24,56.84-82,27.66-4,52.8,27.91,72.15,52.47,12,15.19,36.72,46.59,38.28,89.65,1.1,30.33-10.37,37.51-16.4,67.78-8.77,43.93,5.92,83.8,36.9,155.57,2.54,5.87,5.18,11.94,7.92,18.26,14.76,33.92,28.92,61.64,37.65,81.86C461.17,794.22,464.57,806.65,459,811.34Z"/><path class="cls-13" d="M343.13,410.23c-.44,2.8-2.41,15.49-12.12,23.28,0,0,0,0,0,0l-1,.74c-9,6.56-14.51,2-25.13,6.56a17.39,17.39,0,0,0-6.86,5.11c-4.28,4.89-10.27,14.6-22.66,36.44C262,505.91,260.24,510,259,516.26c-2.12,10.33-1.07,17.23.23,31.35,2.74,29.64.43,24.16,3.05,52.84,4.25,46.65,6.36,70,14.2,90.73,14.4,38.15,36.72,57.09,28.44,68.88-3,4.29-10,5.79-24.06,8.74-14.38,3.05-24.47,5.18-29.52,0s-.1-12.32-2.18-28.42c-1.39-10.68-4.8-17.25-7.66-24.06-8.12-19.35-6.54-28.37-15.61-73.63-6.28-31.42-13.43-59-13.91-60.84-8.8-33.81-13.34-44-10.93-61.21,1.77-12.53,5.16-14.27,17.49-40.46,21.86-46.39,32.78-69.58,37.18-96.19,2.1-12.81,3.31-28.09,15.3-39.36,2.33-2.2,10.72-10.08,21.86-9.84,15.71.35,25.94,16.65,36.08,32.8C337.77,381.69,345.63,394.19,343.13,410.23Z"/><path class="cls-15" d="M331,433.53l-1,.74c-9,6.56-14.51,2-25.13,6.56a17.39,17.39,0,0,0-6.86,5.11,64.79,64.79,0,0,1,3.58-19.43c3.18-9.09,8.56-15.86,9.83-15.3s-3.52,8.56,0,15.3c2.53,4.87,8.48,7.26,13.12,7.66A18.54,18.54,0,0,0,331,433.53Z"/></g><path class="cls-3" d="M648.87,657.11l-.26-.42-.31-.49v0c-.11-.16-1.93-3.68-6.29-12.18a29.22,29.22,0,0,0-13.65-9.48,30.21,30.21,0,0,0-14-.91,34.58,34.58,0,0,0-10.91,3.49c-50-66.48-86.57-24.68-99-5.71a33.06,33.06,0,0,0-32-11.39c-13.68,2.92-24.2,14.86-25.68,29.52-29.21-27.61-48.88,9.6-48.88,9.6v.21c-1.57-.47-13.86-4-24.28,3.7-1.31,1-13.83,10.45-10.16,22,2.31,7.27,10.16,12.46,19.31,12.46l0,.12H664.55q3.47-5.55,7-11.08a24.46,24.46,0,0,0-3.19-18.8C661.65,657.64,650,657.14,648.87,657.11Z"/><path class="cls-3" d="M887.54,130a3.31,3.31,0,0,0,.18-.29l.22-.35h0c.07-.12,1.35-2.6,4.42-8.57a20.56,20.56,0,0,1,9.6-6.66,21.11,21.11,0,0,1,9.8-.64,24.23,24.23,0,0,1,7.67,2.46c35.11-46.73,60.85-17.35,69.6-4a22.81,22.81,0,0,1,40.51,12.74c20.53-19.41,34.35,6.75,34.35,6.75v.15c1.11-.33,9.75-2.78,17.07,2.6.92.67,9.72,7.35,7.14,15.44-1.63,5.11-7.14,8.76-13.57,8.76l0,.08h-198q-2.43-3.9-4.88-7.79a17.17,17.17,0,0,1,2.24-13.21C878.56,130.33,886.77,130,887.54,130Z"/><g class="cls-16"><path class="cls-17" d="M999.65,454.32c.73.3,3.11-9.8,9.36-11.6,3.66-1.05,8,.94,10.38,3.67s2.7,6.18,2.85,9.15a25.8,25.8,0,0,1-3.26,13.23c-1.87,3.78-3.6,7.27-7.52,9.77-3.55,2.25-10.33,4.64-14.66,1.42-3.23-2.4-3.52-6.77-3.86-11.8a20.41,20.41,0,0,1,1.63-10.38c1-2.25,1.54-2,2.23-3.66,2.49-6.08-2.43-12.65-1.42-13.23.68-.39,3.71,2.08,4.68,5.7C1001.12,450.57,999.2,454.13,999.65,454.32Z"/><path class="cls-18" d="M1003.93,453.38a6.25,6.25,0,0,1,2.32-3.67,7,7,0,0,1,4.29-1.51,7.25,7.25,0,0,1,2.3.38,6.9,6.9,0,0,1,2,1.13,6.55,6.55,0,0,1,2.31,3.67,12.6,12.6,0,0,0-3.12-2.46,7.2,7.2,0,0,0-3.48-.86,7.72,7.72,0,0,0-3.51.87A11,11,0,0,0,1003.93,453.38Z"/><path class="cls-18" d="M1011.15,457.05a11.55,11.55,0,0,0,.13-7.89,5.58,5.58,0,0,1-.13,7.89Z"/><path class="cls-15" d="M874.89,454.41c-.72.3-3.11-9.8-9.36-11.59-3.66-1.06-8,.93-10.38,3.66s-2.69,6.18-2.85,9.16a25.73,25.73,0,0,0,3.26,13.22c1.88,3.79,3.61,7.27,7.53,9.77,3.54,2.26,10.32,4.64,14.65,1.42,3.23-2.4,3.53-6.77,3.87-11.8A20.54,20.54,0,0,0,880,457.87c-1-2.25-1.55-2-2.24-3.66-2.48-6.08,2.43-12.65,1.43-13.23-.68-.38-3.72,2.09-4.69,5.7C873.42,450.66,875.35,454.23,874.89,454.41Z"/><path class="cls-19" d="M1004,376.37l-.24,3.82L990.88,378l-6.08-1-3.34-.56c.3-.64.62-1.35.94-2.12a42.08,42.08,0,0,0-.23-32.58,40.41,40.41,0,0,1,21.8,34.6Z"/><path class="cls-20" d="M1085.56,713.76H791.18a171.6,171.6,0,0,1,8.94-65.55c6.74-14.54,15-21.83,21.23-25.79,1.16-.74,7.42-4.12,20.31-9.95L844,611.4c4.34-2,9.71-4.59,16.55-8.09,9.19-4.71,16.44-9.1,21.13-12.07a122.27,122.27,0,0,0,26.51,10.3c.46-.38.91-.77,1.38-1.18a47.35,47.35,0,0,0,6.33-6.74c-4.93-.16-8.41-.35-10.13-.44-9.58-.54-17.77-1.28-24.09-1.94a56.76,56.76,0,0,0,21.77-42.11,185,185,0,0,0-2.67-67.51h75.14a185,185,0,0,0-2.67,67.51,56.72,56.72,0,0,0,21.78,42.11c4.69,3,11.93,7.36,21.12,12.07,8.13,4.16,14.2,7,18.91,9.16,12.89,5.83,19.15,9.21,20.31,9.95,6.25,4,14.49,11.25,21.24,25.79a171.89,171.89,0,0,1,8.93,65.55Z"/><path class="cls-21" d="M995.05,591.24c-21.19,1.9-39.23,2.53-53.28,2.67-10.63.1-19.46-.07-25.85-.29-4.93-.16-8.41-.35-10.13-.44-9.58-.54-17.77-1.28-24.09-1.94a56.76,56.76,0,0,0,21.77-42.11,185,185,0,0,0-2.67-67.51h75.14a185,185,0,0,0-2.67,67.51,56.72,56.72,0,0,0,21.78,42.11Z"/><path class="cls-20" d="M915.92,593.62a47.35,47.35,0,0,1-6.33,6.74c-.47.41-.92.8-1.38,1.18a122.27,122.27,0,0,1-26.51-10.3c6.32.66,14.51,1.4,24.09,1.94C907.51,593.27,911,593.46,915.92,593.62Z"/><path class="cls-22" d="M937.12,521.07a247.47,247.47,0,0,1-2.88,32,110.22,110.22,0,0,1-11.44,29.66,86.26,86.26,0,0,1-6.88,10.88c-4.93-.16-8.41-.35-10.13-.44-9.58-.54-17.77-1.28-24.09-1.94a56.76,56.76,0,0,0,21.77-42.11,185,185,0,0,0-2.67-67.51h34.12A248.11,248.11,0,0,1,937.12,521.07Z"/><path class="cls-23" d="M876.79,713.76H791.18a171.89,171.89,0,0,1,8.93-65.55c6.75-14.54,15-21.83,21.24-25.79,1.16-.74,7.42-4.12,20.31-9.95L844,611.4C847.87,636.05,857,679.76,876.79,713.76Z"/><path class="cls-17" d="M988.52,395.31c-9.33-16.29-22.64-28-37.92-32.43a48.18,48.18,0,0,0-13.41-1.9c-16.26,0-31.13,8.19-42.57,21.75h0c-.69.8-1.35,1.62-2,2.46a85.54,85.54,0,0,0-7.09,10.7.61.61,0,0,0-.07.1,97.58,97.58,0,0,0-4.92,10.11,117.36,117.36,0,0,0-8.77,45v.14c0,3,.11,5.86.31,8.74h1v9c6,41.35,32.43,72.52,64.14,72.52,36.12,0,65.41-40.43,65.41-90.3C1002.6,430.14,997.33,410.7,988.52,395.31Zm-55.94,24.46a66.41,66.41,0,0,1-27.91-1.11c-8.75-2.39-14-6-18.48-9,1.2-3.46,2.39-6.92,3.6-10.37a78.37,78.37,0,0,0,18.84,9.23l1.24.42,1.41.45,1.48.44,1.38.39c.46.14.91.25,1.35.37s.93.24,1.38.35l1.79.43h0l1.72.38c.32.08.64.13.94.2l1,.18.55.11c1.88.34,3.36.55,4.33.67l.23,0,.27,0a91.13,91.13,0,0,0,25.24-.21A66.44,66.44,0,0,1,932.58,419.77Z"/><polygon class="cls-24" points="986.21 448.48 1002.16 440.85 1002.6 447.16 986.21 453.47 986.21 448.48"/><path d="M990.88,378a29.16,29.16,0,0,1-2.07,3.48q-2-2.24-4-4.49l-2.4-2.68a42.08,42.08,0,0,0-.23-32.58,58.8,58.8,0,0,1,6.77,9.41,60.7,60.7,0,0,1,3.31,6.7,24.31,24.31,0,0,1,1.46,6.51A25.73,25.73,0,0,1,990.88,378Z"/><path class="cls-24" d="M887.47,448.57l-15.25-7.72-.44,7.67,15.69,5Z"/><path class="cls-19" d="M1002.6,451.28l-20.76-59.85c-.23-1-1.46-6.83,2.2-11.74a14.78,14.78,0,0,1,7.51-5.07,17.94,17.94,0,0,1,6.25-.81,19,19,0,0,1,6.86,1.63,12.66,12.66,0,0,1,3.42,3.7c2.28,3.77,1.91,7.87,1.72,9.79C1009.14,395.42,1006.59,419,1002.6,451.28Z"/><path class="cls-19" d="M892.5,391.43l-2.67,7.69s0,.08,0,.13c-1.21,3.45-2.4,6.91-3.6,10.37q-7.2,20.76-14.41,41.52a.78.78,0,0,1,0,.14c-4-32.26-6.55-55.86-7.2-62.35-.2-1.92-.56-6,1.72-9.79a12.79,12.79,0,0,1,3.42-3.7c.28-.13.59-.26.94-.39a19,19,0,0,1,5.92-1.24,18.31,18.31,0,0,1,6.25.8,14.92,14.92,0,0,1,7.51,5.08,12.86,12.86,0,0,1,2.34,5.5A16.42,16.42,0,0,1,892.5,391.43Z"/><path class="cls-19" d="M999.55,379.07a61,61,0,0,1-11,16.24,52.81,52.81,0,0,1-8.31,7.08,62.41,62.41,0,0,1-20.57,9c-2.2.54-4.45,1-6.72,1.34a91.13,91.13,0,0,1-25.24.21l-.27,0-.23,0c-1.45-.19-2.9-.42-4.33-.67l-.55-.11-1-.18c-.3-.07-.62-.12-.94-.2l-1.72-.38h0l-1.79-.43c-.45-.11-.91-.22-1.38-.35s-.89-.23-1.35-.37l-1.38-.39-1.48-.44-1.41-.45-1.24-.42a78.82,78.82,0,0,1-18.8-9.36q-2.25-1.55-4.29-3.23a49.46,49.46,0,0,1-10.49-11.67l-.47-.77-.42-.72c-.17-.28-.32-.56-.47-.85a43.78,43.78,0,0,1-3.08-6.83c-1.63-4.7-2.78-11-.63-17.39,2.58-7.62,9.4-13.77,18.57-18.1,17.78-8.39,44.37-9.91,66-1.93C981.79,347.7,995.21,370.71,999.55,379.07Z"/><path class="cls-25" d="M959.64,411.39c-2.2.54-4.45,1-6.72,1.34a91.13,91.13,0,0,1-25.24.21l-.27,0-.23,0c-1-.12-2.45-.33-4.33-.67l-.55-.11-1-.18c-.3-.07-.62-.12-.94-.2l-1.72-.38h0l-1.79-.43c-.45-.11-.91-.22-1.38-.35s-.89-.23-1.35-.37l-1.38-.39-1.48-.44-1.41-.45-1.24-.42a78.37,78.37,0,0,1-18.84-9.23c-1.48-1-2.93-2.1-4.32-3.26a48.87,48.87,0,0,1-10.42-11.77l-.47-.77-.42-.72c-.17-.28-.32-.56-.47-.85a43.78,43.78,0,0,1-3.08-6.83c-1.63-4.7-2.78-11-.63-17.39,2.58-7.62,9.4-13.77,18.57-18.1a34.13,34.13,0,0,0-5.09,17.37,33.05,33.05,0,0,0,2,11.45A59.39,59.39,0,0,0,893,380.79c.54.67,1.07,1.32,1.62,1.94h0a59.32,59.32,0,0,0,8.51,8.06,93.78,93.78,0,0,0,19.5,11.39A113.75,113.75,0,0,0,940.92,408c3.39.83,7.37,1.69,11.9,2.44C955,410.76,957.25,411.1,959.64,411.39Z"/><path class="cls-22" d="M952.92,412.73a66.71,66.71,0,0,1-48.25,5.93c-8.75-2.39-14-6-18.48-9,1.2-3.46,2.39-6.92,3.6-10.37a78.37,78.37,0,0,0,18.84,9.23l1.24.42,1.41.45,1.48.44c.45.14.92.28,1.38.39s.91.25,1.35.37.93.24,1.38.35c.61.16,1.21.3,1.79.43h0l1.72.38c.32.08.64.13.94.2l1,.18.55.11c1.88.34,3.36.55,4.33.67l.23,0,.27,0A91.13,91.13,0,0,0,952.92,412.73Z"/><path class="cls-18" d="M870.61,453.47a10.84,10.84,0,0,0-3.1-2.45,7.75,7.75,0,0,0-3.51-.87,7.32,7.32,0,0,0-3.48.86,12.64,12.64,0,0,0-3.13,2.46,6.73,6.73,0,0,1,2.31-3.67,7,7,0,0,1,2-1.13,7.49,7.49,0,0,1,2.3-.38,7.06,7.06,0,0,1,4.29,1.51A6.28,6.28,0,0,1,870.61,453.47Z"/><path class="cls-18" d="M863.39,457.14a5.59,5.59,0,0,1-.12-7.89,11.47,11.47,0,0,0,.12,7.89Z"/><path class="cls-26" d="M936,605.34q-2.49,3.52-5.08,7c-1.7,2.31-3.47,4.57-5.21,6.86l-5.32,6.76-5.4,6.7-.63.79-1-.42c-3.93-1.73-7.86-3.42-11.76-5.21s-7.79-3.56-11.67-5.38c-7.74-3.69-15.45-7.44-23-11.57,8.11,2.85,16,6.08,24,9.36,3.95,1.67,7.89,3.34,11.81,5.08s7.83,3.5,11.73,5.26l-1.58.36,5.62-6.51,5.7-6.45c1.93-2.12,3.84-4.27,5.81-6.36S934,607.39,936,605.34Z"/><path class="cls-26" d="M946.69,605.34q3,3.07,5.95,6.24c2,2.09,3.87,4.24,5.81,6.36l5.7,6.45,5.62,6.51-1.59-.36c3.91-1.76,7.8-3.56,11.74-5.26s7.86-3.41,11.81-5.08c7.91-3.28,15.86-6.51,24-9.36-7.54,4.13-15.25,7.88-23,11.57-3.88,1.82-7.76,3.63-11.68,5.38s-7.83,3.48-11.75,5.21l-.95.42-.63-.79-5.4-6.7L957,619.17c-1.73-2.29-3.5-4.55-5.21-6.86S948.35,607.69,946.69,605.34Z"/><rect class="cls-27" x="887.47" y="444.17" width="38.54" height="25.95" rx="5.6"/><rect class="cls-27" x="947.67" y="444.07" width="38.54" height="25.95" rx="4.41"/><path class="cls-24" d="M926,447.64a35.33,35.33,0,0,1,21.66,0v5.71a39,39,0,0,0-21.66,0Z"/><path class="cls-20" d="M1189.1,669.36a61.62,61.62,0,0,1-1.39,11.24c-.45,2.5-.92,4.57-1.28,6a28.15,28.15,0,0,1-.82,3.73,33.64,33.64,0,0,1-1.3,3.58,44.44,44.44,0,0,1-5.28,8.65,105.43,105.43,0,0,1-10.1,10.42h-83.74l-50.11-100.54,42.25,13.59,24.71,8.48,3,1,1.92.65c8-3,28.92-9.49,53-2.1a78.47,78.47,0,0,1,23.76,12.08c.31.63.67,1.36,1,2.17a.25.25,0,0,1,0,.07c.52,1.18,1.08,2.56,1.62,4.1A50.3,50.3,0,0,1,1189.1,669.36Z"/><path class="cls-23" d="M1189.1,669.36a55.62,55.62,0,0,1-36.25,18.12,51.22,51.22,0,0,1-39.69-27.28,84.56,84.56,0,0,1-5.25-12.26,74.63,74.63,0,0,1-2.88-12.37c.64.21,1.28.44,1.92.66,8-3,28.93-9.5,53-2.11a78.4,78.4,0,0,1,23.75,12.08c.35.72.7,1.44,1,2.17l0,.07c.52,1.18,1.08,2.56,1.61,4.1A50,50,0,0,1,1189.1,669.36Z"/><path class="cls-13" d="M1172.14,653.72c-2,1.52-15.41,11.58-33.55,8.5a41,41,0,0,1-31.64-26,403.45,403.45,0,0,0-37.42-85.54c-7.29-12.49-14.85-23.9-22.36-34.26q-5.46-5.14-11.33-10.36c-6.36-5.65-12.66-11-18.84-15.94A58.41,58.41,0,0,0,1002.15,479a60.92,60.92,0,0,0-16.39-5.84c-2.54-2-4.12-4.65-3.42-6.38.9-2.21,5.84-3.64,11.61-1.33q4.77,1.21,9.62,2.39,6.76,1.67,13.43,3.19a27.15,27.15,0,0,1,4.69-7.17,28,28,0,0,1,5.26-4.51,16.29,16.29,0,0,0-1-11.42,17.64,17.64,0,0,0-7.49-7.7,61.82,61.82,0,0,0-12.32.79,60.79,60.79,0,0,0-12.45,3.46A5.55,5.55,0,0,1,986,442.6a4.91,4.91,0,0,1,2.91-6.64,102.62,102.62,0,0,1,20-4.78,104,104,0,0,1,23-.53,39.27,39.27,0,0,1,16.27,22.3l4.35,2.92,5.1,3.46a64.52,64.52,0,0,1,5.66,9.82,62.93,62.93,0,0,1,5.64,22.05,464.64,464.64,0,0,1,53.8,65.86A449.15,449.15,0,0,1,1172.14,653.72Z"/><path class="cls-22" d="M1138.59,662.22a41,41,0,0,1-31.64-26,403.45,403.45,0,0,0-37.42-85.54c-7.29-12.49-14.85-23.9-22.36-34.26a273.69,273.69,0,0,1,40.23,41.16A279.4,279.4,0,0,1,1138.59,662.22Z"/><path class="cls-26" d="M1053.76,713.76c-8.94-5.15-17.56-10.77-26.1-16.51-4.26-2.89-8.5-5.8-12.68-8.81s-8.32-6.06-12.38-9.24q6.71,3.87,13.2,8c4.34,2.75,8.63,5.6,12.9,8.47C1037.21,701.49,1045.65,707.39,1053.76,713.76Z"/><path class="cls-28" d="M935.64,615.11l13,.12,3.39,7v8.16l-9.41,7.43-10.11-7.46-.06-8.52C933.5,619.6,934.57,617.35,935.64,615.11Z"/><path class="cls-28" d="M935.64,632.67l-8.43,35.41,17.92,107.56Q950.8,722,956.45,668.28L949,632.67Z"/></g></g></svg>