<svg xmlns="http://www.w3.org/2000/svg" xmlns:xlink="http://www.w3.org/1999/xlink" viewBox="0 0 1200 800"><defs><style>.cls-1{fill:none;}.cls-2{fill:#ddeef2;}.cls-3{fill:#c2e3ec;}.cls-4{fill:#81afb5;}.cls-5{clip-path:url(#clip-path);}.cls-6{clip-path:url(#clip-path-2);}.cls-7{fill:#5f6368;}.cls-11,.cls-8{fill:#f8f9fa;stroke:#5f6368;stroke-miterlimit:10;}.cls-8{stroke-width:0.62px;}.cls-9{fill:#3c4043;}.cls-10{fill:#80868b;}.cls-11{stroke-width:0.44px;}.cls-12{fill:#194556;}.cls-13{fill:#e47f1c;}.cls-14{fill:#bc5e17;}.cls-15{fill:#c080c0;}.cls-16{clip-path:url(#clip-path-3);}.cls-17{clip-path:url(#clip-path-4);}.cls-18{fill:#305050;}.cls-19{fill:#707050;}.cls-20{fill:#f4d122;}.cls-21{fill:#703030;}.cls-22{fill:#0d652d;}</style><clipPath id="clip-path"><rect class="cls-1" x="194.16" y="132.19" width="400.69" height="540.52" rx="47.56"/></clipPath><clipPath id="clip-path-2"><rect class="cls-1" x="194.16" y="132.19" width="400.69" height="540.52"/></clipPath><clipPath id="clip-path-3"><rect class="cls-1" x="605.16" y="132.19" width="400.69" height="540.52" rx="47.56"/></clipPath><clipPath id="clip-path-4"><rect class="cls-1" x="605.16" y="132.19" width="400.69" height="540.52"/></clipPath></defs><g id="Слой_4" data-name="Слой 4"><rect class="cls-2" y="-0.19" width="1200" height="800.19"/><path class="cls-3" d="M966.3,721.79c-34.64,8.55-62.43,15.72-85.59,21.55-89,22.44-109.84,25.21-189.08,10.62C651.41,746.57,617,730.22,582,716,530.2,695,477.27,678.7,402.7,703.4c-52.88,17.52-108.3,27.63-156.82,23l-.28,0a2.71,2.71,0,0,1-.4,0c-1.08-.1-2.17-.21-3.27-.34a199.65,199.65,0,0,1-24.34-4.23c-.26-.05-.51-.12-.76-.19a160,160,0,0,1-30.92-10.86.11.11,0,0,0-.08,0c-37-17.67-64.59-50.37-75.63-103.78C101.52,565,66,475.06,115.37,407.7c28.84-39.35,73-54.18,100.26-60.09,42.79-4.58,93.75-14.92,100.22-41.39,2.59-10.64-2.57-20.22-5.89-25.7C270.71,216.16,270.71,32.3,399.13,78.27s155.16,78.14,204.2,23S777.25-5.27,830.75,71,816.48,280.52,905.67,303.5,1109,344.87,1109,459.78,1134,680.42,966.3,721.79Z"/><circle class="cls-3" cx="987.84" cy="158.4" r="59.89"/><circle class="cls-3" cx="144.06" cy="247.3" r="29.02"/><circle class="cls-3" cx="177.84" cy="132.19" r="20.99"/><rect class="cls-4" x="194.16" y="132.19" width="400.69" height="540.52" rx="47.56"/><g class="cls-5"><g class="cls-6"><polygon class="cls-7" points="308.36 472.29 308.36 504.99 258.21 534.41 283.48 478.64 308.36 472.29"/><path class="cls-7" d="M469.09,772.62c12.25-36.78-35-127-35-127l-32.56-81.74L349,534.41s0,39.24,38.83,52.73-17.7,94.4-17.7,94.4l17.7,47-13.54,44.08H315.91l-29.47-44.08L331.74,711,295,653.51l36.77-119.1L308.36,505h23.38l14-32.7,34.33,16.35,7.77-4.2L513.2,772.62Z"/><polygon class="cls-8" points="387.86 484.44 380.1 488.64 345.76 472.29 331.74 504.99 308.36 504.99 308.36 472.29 283.48 478.64 335.45 363.92 387.86 484.44"/><path class="cls-9" d="M469.09,772.62H374.32l13.54-44.08-17.7-47s56.53-80.92,17.7-94.4S349,534.41,349,534.41l52.45,29.43L434,645.58S481.34,735.84,469.09,772.62Z"/><polygon class="cls-10" points="331.74 710.97 286.44 728.54 315.91 772.62 150.28 772.62 258.21 534.41 308.36 504.99 331.74 534.41 294.97 653.51 331.74 710.97"/><polygon class="cls-7" points="481.82 553.75 481.82 577.15 445.92 598.22 464.01 558.29 481.82 553.75"/><path class="cls-7" d="M596.88,768.74c8.77-26.33-25.09-90.94-25.09-90.94l-23.31-58.52-37.54-21.06s0,28.09,27.79,37.74-12.67,67.58-12.67,67.58l12.67,33.65L529,768.74H487.23l-21.1-31.55,32.42-12.58-26.31-41.14,26.31-85.25-16.73-21.07h16.73l10.05-23.4,24.57,11.7,5.56-3,89.72,206.3Z"/><polygon class="cls-11" points="538.73 562.44 533.17 565.45 508.6 553.75 498.56 577.15 481.82 577.15 481.82 553.75 464.01 558.29 501.21 476.17 538.73 562.44"/><path class="cls-9" d="M596.88,768.74H529l9.69-31.55-12.67-33.65s40.46-57.93,12.67-67.58-27.79-37.74-27.79-37.74l37.54,21.06,23.31,58.52S605.65,742.41,596.88,768.74Z"/><polygon class="cls-10" points="498.56 724.61 466.13 737.19 487.23 768.74 368.66 768.74 445.92 598.22 481.82 577.15 498.56 598.22 472.24 683.47 498.56 724.61"/><path class="cls-12" d="M398.74,213.66c-.35-1.21,24.85-17.75,46.19-9.09,17.23,7,18.14,24.79,31.22,24.59,9.1-.14,15-8.87,33-8.86,1.27,0,2.12,0,3.3.1,20.46,1.83,33.86,26.1,32.31,27.54s-12.89-20.33-32.54-21.26c-20.3-1-43.29,17.22-43.29,17.22S459.3,220.44,443,211.14C424.3,200.44,399.09,214.85,398.74,213.66Z"/><path class="cls-12" d="M355.86,286.58C355.4,286,366.65,271,381,271.52c11.55.45,15.83,10.68,23.44,7.8,5.3-2,6.91-8.35,17.41-12.14.74-.26,1.25-.44,2-.63,12.35-3.25,25.3,8.12,24.7,9.29s-11.83-9.17-23.52-5.57c-12.07,3.72-21.68,19.21-21.68,19.21s-10.56-11.71-22-13.71C368,273.46,356.32,287.21,355.86,286.58Z"/></g></g><path class="cls-13" d="M211.22,616.27a52.19,52.19,0,0,1-17.95,28.23c-11.31,9-27.75,14-38.69,10.32-20.58-6.93-33.15-48.64-19.35-102.41.49-1.83,1.47-4.55,3.35-4.94,2.09-.44,4.25,2.22,4.84,2.91,6.89,8.1,23.4,12.52,41.56,29.72A125.53,125.53,0,0,1,211.22,616.27Z"/><path class="cls-14" d="M195.28,647.05c2.23,2.41,10.23,10.47,22.51,11.19,15.32.91,25.44-10.39,28.81-13.92,30.45-31.84-13.94-58.19-13.94-58.19s-10.62-12,5.54-30.45-1.85-52.15-21.69-50.76S173.13,526.14,178.67,540s24.45,29.07,15.69,45.22c-8.64,15.91-12.32,25.78-8.64,43.32A41.49,41.49,0,0,0,195.28,647.05Z"/><rect class="cls-15" x="605.16" y="132.19" width="400.69" height="540.52" rx="47.56"/><g class="cls-16"><g class="cls-17"><polygon class="cls-18" points="719.36 472.29 719.36 504.99 669.21 534.41 694.48 478.64 719.36 472.29"/><path class="cls-19" d="M880.09,772.62c12.25-36.78-35.05-127-35.05-127l-32.56-81.74L760,534.41s0,39.24,38.83,52.73-17.7,94.4-17.7,94.4l17.7,47-13.54,44.08H726.91l-29.47-44.08L742.74,711,706,653.51l36.77-119.1L719.36,505h23.38l14-32.7,34.33,16.35,7.77-4.2L924.2,772.62Z"/><polygon class="cls-20" points="798.86 484.44 791.1 488.64 756.76 472.29 742.74 504.99 719.36 504.99 719.36 472.29 694.48 478.64 746.45 363.92 798.86 484.44"/><path class="cls-18" d="M880.09,772.62H785.32l13.54-44.08-17.7-47s56.53-80.92,17.7-94.4S760,534.41,760,534.41l52.45,29.43L845,645.58S892.34,735.84,880.09,772.62Z"/><polygon class="cls-19" points="742.74 710.97 697.44 728.54 726.91 772.62 561.28 772.62 669.21 534.41 719.36 504.99 742.74 534.41 705.97 653.51 742.74 710.97"/><polygon class="cls-18" points="892.82 553.75 892.82 577.15 856.92 598.22 875.01 558.29 892.82 553.75"/><path class="cls-19" d="M1007.88,768.74c8.77-26.33-25.09-90.94-25.09-90.94l-23.31-58.52-37.54-21.06s0,28.09,27.79,37.74-12.67,67.58-12.67,67.58l12.67,33.65L940,768.74H898.23l-21.1-31.55,32.42-12.58-26.31-41.14,26.31-85.25-16.73-21.07h16.73l10.05-23.4,24.57,11.7,5.56-3,89.72,206.3Z"/><polygon class="cls-20" points="949.73 562.44 944.17 565.45 919.6 553.75 909.55 577.15 892.82 577.15 892.82 553.75 875.01 558.29 912.21 476.17 949.73 562.44"/><path class="cls-18" d="M1007.88,768.74H940l9.69-31.55-12.67-33.65s40.46-57.93,12.67-67.58-27.79-37.74-27.79-37.74l37.54,21.06,23.31,58.52S1016.65,742.41,1007.88,768.74Z"/><polygon class="cls-19" points="909.55 724.61 877.13 737.19 898.23 768.74 779.66 768.74 856.92 598.22 892.82 577.15 909.55 598.22 883.24 683.47 909.55 724.61"/><path class="cls-21" d="M809.74,213.66c-.35-1.21,24.85-17.75,46.19-9.09,17.23,7,18.14,24.79,31.22,24.59,9.1-.14,15-8.87,33-8.86,1.27,0,2.12,0,3.3.1,20.46,1.83,33.86,26.1,32.31,27.54s-12.89-20.33-32.54-21.26c-20.3-1-43.29,17.22-43.29,17.22S870.3,220.44,854,211.14C835.3,200.44,810.09,214.85,809.74,213.66Z"/><path class="cls-21" d="M766.86,286.58C766.4,286,777.65,271,792,271.52c11.55.45,15.83,10.68,23.44,7.8,5.3-2,6.91-8.35,17.41-12.14.74-.26,1.25-.44,2-.63,12.35-3.25,25.3,8.12,24.7,9.29s-11.83-9.17-23.52-5.57c-12.07,3.72-21.68,19.21-21.68,19.21s-10.56-11.71-22-13.71C779,273.46,767.32,287.21,766.86,286.58Z"/></g></g><path class="cls-13" d="M226.47,630.83l41.06,43.65s41-41.25,42.26-70.92-29.54-15.92-29.54-15.92S223.8,604.41,226.47,630.83Z"/><path class="cls-22" d="M144.06,568.6q9.57,16.93,18.17,34.4c2.91,5.79,5.69,11.65,8.47,17.51s5.43,11.78,8.08,17.71,5.15,11.91,7.6,17.92,4.83,12.06,7,18.19,4.24,12.29,6,18.55c.85,3.14,1.65,6.3,2.29,9.49a58.39,58.39,0,0,1,1.29,9.66,107.72,107.72,0,0,0-5.12-18.67c-2.12-6.1-4.47-12.12-6.86-18.12s-4.9-12-7.46-17.9-5.11-11.88-7.74-17.79-5.24-11.83-7.88-17.74l-8-17.72-8-17.72C149.35,580.43,146.64,574.55,144.06,568.6Z"/><path class="cls-22" d="M214.66,543.09q1.29,21.78,1.61,43.6c.15,7.27.16,14.54.19,21.81s-.08,14.55-.18,21.82-.35,14.54-.62,21.82-.65,14.54-1.21,21.8-1.18,14.52-2.14,21.75c-.5,3.61-1.08,7.22-1.83,10.79-.37,1.79-.8,3.57-1.34,5.32a15.39,15.39,0,0,1-2.32,4.93,15.16,15.16,0,0,0,1.84-5.06q.6-2.65,1-5.34c.51-3.59.83-7.2,1.09-10.81.57-7.23.88-14.48,1.18-21.72s.51-14.51.65-21.76.34-14.52.45-21.78l.72-43.57.39-21.8C214.32,557.63,214.41,550.36,214.66,543.09Z"/><path class="cls-22" d="M291.73,603.21a252.51,252.51,0,0,0-25.79,23.08,278.24,278.24,0,0,0-22.6,26.05A267.27,267.27,0,0,0,224.18,681a292.25,292.25,0,0,0-15.35,31,179.51,179.51,0,0,1,13.09-32.26c1.39-2.56,2.72-5.16,4.23-7.65s3-5,4.54-7.47c3.18-4.88,6.49-9.69,10-14.31s7.28-9.11,11.18-13.43,8-8.49,12.26-12.45,8.66-7.77,13.23-11.36A132.31,132.31,0,0,1,291.73,603.21Z"/><path class="cls-13" d="M245.88,726.37l-.28,0a2.71,2.71,0,0,1-.4,0c-1.08-.1-2.17-.21-3.27-.34a199.65,199.65,0,0,1-24.34-4.23c-.26-.05-.51-.12-.76-.19a160,160,0,0,1-30.92-10.86.11.11,0,0,0-.08,0l-6.35-27.06s-2.41-21,16.51-7.27c18,13.09,9.68,38.21,8.84,40.57L219.35,683c1.16-1.63,5-6.92,7.17-6.08,1.39.56,1.67,3.53,1.49,5.77-.42,5.89-2.09,13.45-4,20.48,4.56-10.24,9.27-19.08,11.79-18.39a1.48,1.48,0,0,1,.81.7c4.15,7,0,26.51,0,26.51,0,.41.28,4,2,4.5,1.14.33,2.42-1,4-2.64,3.38-3.52,3.8-6.07,5.83-6.35a3.49,3.49,0,0,1,3,1.22C254.24,712.26,248.25,722.94,245.88,726.37Z"/></g></svg>